<svg height="496pt" viewBox="0 0 496 496" width="496pt" xmlns="http://www.w3.org/2000/svg"><path d="m295.199219 58.398438c0-3.199219.800781-7.199219.800781-10.398438 0-26.398438-21.601562-48-48-48s-48 21.601562-48 48c0 3.199219.800781 7.199219.800781 10.398438-19.199219 6.402343-32.800781 24-32.800781 45.601562v40c0 4.800781 3.199219 8 8 8h32c4.800781 0 8-3.199219 8-8v-8h64v8c0 4.800781 3.199219 8 8 8h32c4.800781 0 8-3.199219 8-8v-40c0-21.601562-13.601562-39.199219-32.800781-45.601562zm-47.199219-42.398438c17.601562 0 32 14.398438 32 32s-14.398438 32-32 32-32-14.398438-32-32 14.398438-32 32-32zm64 120h-16v-32h-16v16h-64v-16h-16v32h-16v-32c0-14.398438 9.601562-27.199219 23.199219-30.398438 8.800781 13.597657 24 22.398438 40.800781 22.398438s32-8.800781 40.800781-22.398438c13.597657 4 23.199219 16 23.199219 30.398438zm0 0"/><path d="m320 168h-144c-4.800781 0-8 3.199219-8 8v144c0 4.800781 3.199219 8 8 8h144c4.800781 0 8-3.199219 8-8v-144c0-4.800781-3.199219-8-8-8zm-8 144h-128v-128h128zm0 0"/><path d="m144 168h-40c-21.601562 0-39.199219 13.601562-45.601562 32.800781-3.199219 0-7.199219-.800781-10.398438-.800781-26.398438 0-48 21.601562-48 48s21.601562 48 48 48c3.199219 0 7.199219-.800781 10.398438-.800781 6.402343 19.199219 24 32.800781 45.601562 32.800781h40c4.800781 0 8-3.199219 8-8v-32c0-4.800781-3.199219-8-8-8h-8v-64h8c4.800781 0 8-3.199219 8-8v-32c0-4.800781-3.199219-8-8-8zm-128 80c0-17.601562 14.398438-32 32-32s32 14.398438 32 32-14.398438 32-32 32-32-14.398438-32-32zm120-48h-32v16h16v64h-16v16h32v16h-32c-14.398438 0-27.199219-9.601562-30.398438-23.199219 13.597657-8.800781 22.398438-24 22.398438-40.800781s-8.800781-32-22.398438-40.800781c4-13.597657 16-23.199219 30.398438-23.199219h32zm0 0"/><path d="m448 200c-3.199219 0-7.199219.800781-10.398438.800781-6.402343-19.199219-24-32.800781-45.601562-32.800781h-40c-4.800781 0-8 3.199219-8 8v32c0 4.800781 3.199219 8 8 8h8v64h-8c-4.800781 0-8 3.199219-8 8v32c0 4.800781 3.199219 8 8 8h40c21.601562 0 39.199219-13.601562 45.601562-32.800781 3.199219.800781 7.199219.800781 10.398438.800781 26.398438 0 48-21.601562 48-48s-21.601562-48-48-48zm-56 112h-32v-16h32v-16h-16v-64h16v-16h-32v-16h32c14.398438 0 27.199219 9.601562 30.398438 23.199219-13.597657 8.800781-22.398438 24-22.398438 40.800781s8.800781 32 22.398438 40.800781c-3.199219 13.597657-16 23.199219-30.398438 23.199219zm56-32c-17.601562 0-32-14.398438-32-32s14.398438-32 32-32 32 14.398438 32 32-14.398438 32-32 32zm0 0"/><path d="m320 344h-32c-4.800781 0-8 3.199219-8 8v8h-64v-8c0-4.800781-3.199219-8-8-8h-32c-4.800781 0-8 3.199219-8 8v40c0 21.601562 13.601562 39.199219 32.800781 45.601562 0 3.199219-.800781 7.199219-.800781 10.398438 0 26.398438 21.601562 48 48 48s48-21.601562 48-48c0-3.199219-.800781-7.199219-.800781-10.398438 19.199219-6.402343 32.800781-24 32.800781-45.601562v-40c0-4.800781-3.199219-8-8-8zm-72 136c-17.601562 0-32-14.398438-32-32s14.398438-32 32-32 32 14.398438 32 32-14.398438 32-32 32zm64-88c0 14.398438-9.601562 27.199219-23.199219 30.398438-8.800781-13.597657-24-22.398438-40.800781-22.398438s-32 8.800781-40.800781 22.398438c-13.597657-4-23.199219-16-23.199219-30.398438v-32h16v32h16v-16h64v16h16v-32h16zm0 0"/></svg>