<?xml version="1.0" encoding="iso-8859-1"?>
<!-- Generator: Adobe Illustrator 19.0.0, SVG Export Plug-In . SVG Version: 6.00 Build 0)  -->
<svg version="1.1" id="Capa_1" xmlns="http://www.w3.org/2000/svg" xmlns:xlink="http://www.w3.org/1999/xlink" x="0px" y="0px"
	 viewBox="0 0 59.994 59.994" style="enable-background:new 0 0 59.994 59.994;" xml:space="preserve">
<g>
	<path d="M12,36.498c-4.411,0-8,3.589-8,8s3.589,8,8,8s8-3.589,8-8S16.411,36.498,12,36.498z M12,50.498c-3.309,0-6-2.691-6-6
		s2.691-6,6-6s6,2.691,6,6S15.309,50.498,12,50.498z"/>
	<path d="M11,28.498v2c0,0.552,0.447,1,1,1s1-0.448,1-1v-2c0-0.552-0.447-1-1-1S11,27.946,11,28.498z"/>
	<path d="M56.485,24.012c-2.831-2.831-6.734-3.937-10.413-3.342l-5.143-5.143c-1.129-1.128-3.056-1.187-4.121-0.121l-0.952,0.952
		l-0.202-2.929c-0.001-0.014-0.009-0.025-0.011-0.039c1.219-1.079,1.359-2.945,0.298-4.19l-3.244-3.805
		c-1.07-1.257-2.968-1.409-4.229-0.336c-0.041,0.035-0.071,0.078-0.11,0.115L25.172,4.92c-0.289-0.466-0.695-0.85-1.199-1.103
		c-0.718-0.36-1.53-0.419-2.289-0.167l-4.745,1.576c-1.339,0.445-2.148,1.75-2.036,3.098l-2.413,2.119
		c-0.053-0.006-0.104-0.022-0.157-0.026c-1.63-0.094-3.079,1.148-3.188,2.8l-0.323,4.99C8.73,19.643,9.669,20.91,11,21.286v3.212
		H7.828c-1.533,0-2.828,1.374-2.828,3v7.273c-3.022,2.181-5,5.724-5,9.727c0,6.617,5.383,12,12,12s12-5.383,12-12
		c0-4.003-1.978-7.546-5-9.727v-7.273c0-1.626-1.295-3-2.828-3H13v-3.351c0.284-0.123,0.554-0.283,0.794-0.494
		c0.604-0.53,0.964-1.261,1.016-2.059l0.322-4.989c0.052-0.797-0.212-1.567-0.74-2.171l1.401-1.23
		c0.22,0.215,0.465,0.406,0.748,0.548c0.425,0.213,0.884,0.321,1.345,0.321c0.317,0,0.635-0.051,0.944-0.153l4.745-1.576
		c1.099-0.365,1.834-1.313,2.005-2.385l1.845,0.147c-0.06,0.765,0.17,1.553,0.706,2.182l3.244,3.805
		c0.593,0.695,1.437,1.052,2.285,1.052c0.012,0,0.024-0.003,0.037-0.003l0.282,4.092l-3.071,3.071
		c-1.084,1.084-1.028,2.972,0.121,4.121l5.143,5.143c-0.595,3.679,0.511,7.583,3.342,10.414c2.34,2.339,5.412,3.509,8.485,3.509
		s6.146-1.169,8.485-3.509C61.164,36.304,61.164,28.691,56.485,24.012z M22,44.498c0,5.514-4.486,10-10,10s-10-4.486-10-10
		s4.486-10,10-10c0.353,0,0.704,0.019,1.052,0.056c0.054,0.006,0.107,0.018,0.161,0.025c0.297,0.037,0.593,0.081,0.886,0.145
		c0.036,0.008,0.07,0.019,0.105,0.027c0.312,0.071,0.622,0.154,0.927,0.256c0.018,0.006,0.036,0.014,0.054,0.02
		c0.316,0.107,0.628,0.23,0.936,0.37C19.583,36.971,22,40.454,22,44.498z M17,27.498v6h-0.218c-1.466-0.64-3.082-1-4.782-1
		c-1.415,0-3.454,0.252-5,0.727v-5.727c0-0.495,0.418-1,0.828-1h8.344C16.582,26.498,17,27.003,17,27.498z M12.813,18.465
		c-0.017,0.265-0.138,0.508-0.34,0.686c-0.201,0.177-0.448,0.265-0.723,0.248c-0.55-0.035-0.969-0.512-0.934-1.063l0.323-4.989
		c0.034-0.529,0.475-0.936,0.997-0.936c0.021,0,0.044,0.001,0.065,0.002c0.265,0.017,0.507,0.137,0.685,0.339
		c0.177,0.202,0.266,0.458,0.248,0.723L12.813,18.465z M23.521,6.945c-0.121,0.24-0.325,0.418-0.577,0.501l-4.745,1.576
		c-0.25,0.085-0.522,0.063-0.762-0.057c-0.24-0.12-0.419-0.325-0.502-0.576c0,0,0,0,0-0.001c-0.084-0.251-0.063-0.522,0.057-0.762
		c0.121-0.24,0.325-0.418,0.577-0.501l4.745-1.576c0.102-0.034,0.207-0.051,0.312-0.051c0.154,0,0.308,0.036,0.45,0.108
		c0.229,0.114,0.396,0.309,0.483,0.544c0.007,0.024,0.014,0.047,0.023,0.07C23.653,6.461,23.636,6.716,23.521,6.945z M32.896,11.795
		L29.652,7.99c-0.357-0.419-0.307-1.052,0.112-1.41c0.188-0.16,0.419-0.239,0.648-0.239c0.282,0,0.564,0.119,0.762,0.351
		l3.244,3.805c0.357,0.419,0.307,1.052-0.113,1.41C33.888,12.264,33.256,12.216,32.896,11.795z M36.493,28.062l-4.05-4.049
		c-0.35-0.35-0.411-1.003-0.121-1.293l5.899-5.899c0.155-0.155,0.373-0.186,0.521-0.186c0.023,0,0.046,0,0.065,0.002
		c0.268,0.016,0.532,0.13,0.707,0.305l4.242,4.243l-0.155,0.155c-1.489,0.584-2.885,1.472-4.087,2.673
		C38.514,25.013,37.251,26.634,36.493,28.062z M55.071,39.569c-3.9,3.898-10.244,3.899-14.143,0c-3.899-3.899-3.899-10.244,0-14.143
		c0.25-0.25,0.512-0.485,0.785-0.705c0.037-0.03,0.077-0.055,0.114-0.084c0.241-0.189,0.488-0.371,0.745-0.536
		c0.028-0.018,0.057-0.032,0.084-0.05c0.273-0.172,0.554-0.334,0.845-0.479c0.017-0.009,0.035-0.016,0.052-0.024
		c0.298-0.147,0.605-0.28,0.92-0.399c1.134-0.426,2.328-0.647,3.525-0.647c2.561,0,5.122,0.975,7.071,2.924
		C58.971,29.325,58.971,35.67,55.071,39.569z"/>
	<path d="M53.657,26.841c-3.119-3.119-8.195-3.119-11.314,0c-3.118,3.119-3.118,8.194,0,11.313c1.56,1.56,3.608,2.339,5.657,2.339
		s4.098-0.78,5.657-2.339C56.775,35.036,56.775,29.961,53.657,26.841z M52.243,36.74c-2.341,2.34-6.147,2.337-8.486,0
		c-2.339-2.34-2.339-6.146,0-8.485c1.17-1.17,2.707-1.754,4.243-1.754c1.537,0,3.073,0.585,4.243,1.754
		C54.582,30.595,54.582,34.401,52.243,36.74z"/>
	<path d="M37.394,20.477c-0.391-0.391-1.023-0.391-1.414,0s-0.391,1.023,0,1.414l1.414,1.414c0.195,0.195,0.451,0.293,0.707,0.293
		s0.512-0.098,0.707-0.293c0.391-0.391,0.391-1.023,0-1.414L37.394,20.477z"/>
</g>
<g>
</g>
<g>
</g>
<g>
</g>
<g>
</g>
<g>
</g>
<g>
</g>
<g>
</g>
<g>
</g>
<g>
</g>
<g>
</g>
<g>
</g>
<g>
</g>
<g>
</g>
<g>
</g>
<g>
</g>
</svg>
