<svg id="Capa_1" enable-background="new 0 0 510.16 510.16" height="512" viewBox="0 0 510.16 510.16" width="512" xmlns="http://www.w3.org/2000/svg"><path d="m162.1 473.12v37.04c27-3.01 52.18-14.17 72.68-32.32-7.68-9.86-14.25-20.63-19.52-32.09-14.05 14.25-32.52 24.12-53.16 27.37z"/><path d="m234.57 278.96c-5.98-5.3-12.49-10.08-19.45-14.25-9.92-5.95-16.08-16.9-16.08-28.59v-20.69c0-5.523-4.477-10-10-10h-26.94v25.522c0 8.074-6.201 15.024-14.265 15.41-8.614.412-15.735-6.458-15.735-14.982v-25.95h-26.94c-5.523 0-10 4.477-10 10v20.7c0 11.66-6.26 22.67-16.34 28.73-40.29 24.28-64.31 66.82-64.24 113.79.09 67.54 51.71 123.98 117.52 131.51v-37.04c-47.08-7.421-82.877-49.264-80.739-98.866 2.17-50.356 43.706-90.746 94.102-91.591 27.238-.457 51.951 10.507 69.677 28.406 5.218-11.413 11.615-22.038 19.43-32.109z"/><path d="m431.08 264.71c-4.96-2.97-8.98-7.19-11.76-12.14-2.79-4.94-4.33-10.61-4.33-16.45v-20.69c0-5.523-4.477-10-10-10h-26.93v25.522c0 8.074-6.2 15.024-14.265 15.41-8.614.412-15.735-6.458-15.735-14.982v-25.95h-26.94c-5.523 0-10 4.477-10 10v20.7c0 11.66-6.26 22.67-16.34 28.73-40.218 24.248-64.324 66.752-64.25 113.79.107 67.285 51.409 123.933 117.53 131.51v-37.04c-45.589-7.185-80.83-46.759-80.83-94.65 0-53.36 43.89-96.764 97.573-95.804 50.395.9 91.882 41.347 93.991 91.706 2.076 49.551-33.691 91.333-80.734 98.749v37.04c29.4-3.28 56.63-16.21 78.03-37.31 25.47-25.1 39.49-58.63 39.49-94.38 0-46.331-24.72-89.921-64.5-113.761z"/><path d="m162.1 69.95c0-22.03 17.92-39.95 39.95-39.95 20.97 0 38.03 17.06 38.03 38.03v1.83c0 23.81 19.37 43.18 43.17 43.18h35.4c16.22 0 29.41 13.19 29.41 29.41v32.98h30v-32.98c0-32.76-26.65-59.41-59.41-59.41h-35.4c-7.26 0-13.17-5.91-13.17-13.18v-1.83c0-37.51-30.52-68.03-68.03-68.03-38.57 0-69.95 31.38-69.95 69.95v105.48h30z"/></svg>