<svg height="511pt" viewBox="-105 0 511 511.99925" width="511pt" xmlns="http://www.w3.org/2000/svg"><path d="m299.59375 424.679688-22.171875-91c-10.445313-42.875-48.371094-72.125-91.398437-72.476563v-18.722656c13.070312-6.070313 24.515624-15.46875 33.054687-27.441407 5.757813 4.175782 12.832031 6.644532 20.472656 6.644532 31.359375 0 46.871094-38.527344 24.050781-60.226563 24.484376-16.078125 19.433594-52.992187-7.894531-62.292969 10.109375-11.96875 8.578125-25.574218 8.726563-26.484374 0-40.074219-32.605469-72.679688-72.679688-72.679688h-.929687c-4.144531 0-7.5 3.359375-7.5 7.5 0 4.144531 3.355469 7.503906 7.5 7.503906h.929687c31.804688 0 57.675782 25.875 57.675782 57.675782v2.644531c0 12.125-9.863282 21.988281-21.988282 21.988281h-153.5c-12.125 0-21.988281-9.863281-21.988281-21.988281v-2.644531c0-31.800782 25.875-57.675782 57.679687-57.675782h53.1875c4.144532 0 7.5-3.359375 7.5-7.503906 0-4.140625-3.355468-7.5-7.5-7.5h-53.1875c-40.078124 0-72.683593 32.605469-72.683593 72.679688.195312 1.144531-1.660157 14.75 9.285156 27.128906-26.167969 10.492187-29.824219 46.105468-6.160156 61.644531-6.695313 6.367187-10.875 15.355469-10.875 25.304687 0 27.726563 30.859375 44.25 53.878906 29.320313 8.445313 11.433594 19.613281 20.449219 32.285156 26.351563v18.769531c-43.019531.363281-80.949219 29.585937-91.402343 72.480469l-22.171876 91c-4.8125 19.761718 4.15625 40.671874 21.816407 50.855468 84.324219 48.617188 169.839843 48.621094 254.171875 0 17.660156-10.183594 26.632812-31.09375 21.816406-50.855468zm-97.253906-146.613282-23.695313 32.097656c-22.984375-24.363281-15.058593-15.960937-16.773437-17.777343l19.371094-16.1875c3.414062.160156 9.921874-.597657 21.097656 1.867187zm-79.601563 32.097656-23.691406-32.097656c11.316406-2.496094 17.542969-1.703125 21.097656-1.867187l19.371094 16.1875c-1.714844 1.816406 6.214844-6.585938-16.777344 17.777343zm116.8125-103.484374c-10.636719 0-19.421875-8.402344-19.902343-19-.523438-11.484376 8.742187-20.921876 20.007812-20.84375 1.105469.152343 2.226562.253906 3.363281.300781 9.339844 1.644531 16.453125 9.816406 16.453125 19.621093 0 10.984376-8.9375 19.921876-19.921875 19.921876zm24.855469-74.441407c0 10.984375-8.9375 19.925781-19.925781 19.925781-11.152344 0-20.265625-9.238281-19.910157-20.578124.363282-10.835938 9.28125-19.269532 19.910157-19.269532 10.988281 0 19.925781 8.9375 19.925781 19.921875zm-225.132812 0c0-10.984375 8.9375-19.921875 19.921874-19.921875 10.9375 0 19.761719 8.828125 19.921876 19.636719.136718 9.835937-6.929688 18.230469-16.453126 19.90625-1.136718.050781-2.257812.148437-3.363281.304687-10.996093.074219-20.027343-8.882812-20.027343-19.925781zm4.929687 54.519531c0-14.027343 14.167969-23.617187 27.125-18.578124 20.628906 8.625 14.5625 38.5-7.203125 38.5-10.984375 0-19.921875-8.9375-19.921875-19.921876zm49.5625 18.472657c10.089844-16.175781 5.25-37.441407-10.488281-47.695313 12.390625-11.773437 14.484375-31.027344 4.613281-45.21875h127.894531c-9.464844 13.601563-8.125 32.402344 3.882813 44.5v1.222656c-14.742188 10.171876-19.257813 29.898438-10.828125 45.367188-26.757813 41.867188-87.167969 42.5-115.074219 1.824219zm77.253906 42.558593v17.402344l-20.328125 16.984375-20.324218-16.984375v-17.402344c13.792968 3.449219 27.929687 3.183594 40.652343 0zm99.265625 214.75c-79.355468 45.75-159.828125 45.75-239.183594 0-11.921874-6.875-17.980468-20.984374-14.734374-34.308593l22.171874-91c6.058594-24.855469 23.210938-44.527344 45.453126-54.292969l31.609374 42.816406-7.253906 45.375c-.65625 4.09375 2.132813 7.941406 6.222656 8.59375 4.089844.648438 7.9375-2.132812 8.59375-6.222656l8.046876-50.335938c26.703124-27.957031 17.492187-18.3125 19.484374-20.398437 1.992188 2.085937-7.21875-7.558594 19.484376 20.398437 17.648437 111.84375 17.289062 105.347657 16.570312 106.191407-.730469.855469 2.761719.175781-71.234375.402343-.71875 0-1.25-.636718-1.136719-1.332031l4.304688-26.921875c.652344-4.089844-2.132813-7.9375-6.222656-8.589844-4.097657-.648437-7.9375 2.128907-8.59375 6.222657l-4.304688 26.917969c-1.570312 9.820312 6.019531 18.707031 15.953125 18.707031h70.359375c9.941406 0 17.519531-8.902344 15.949219-18.707031l-16.039063-100.300782 31.609375-42.816406c22.242188 9.765625 39.394531 29.4375 45.453125 54.292969l22.167969 91c3.25 13.324219-2.808594 27.433593-14.730469 34.308593zm0 0"/></svg>