<?xml version="1.0" encoding="iso-8859-1"?>
<!-- Generator: Adobe Illustrator 19.0.0, SVG Export Plug-In . SVG Version: 6.00 Build 0)  -->
<svg version="1.1" id="Layer_1" xmlns="http://www.w3.org/2000/svg" xmlns:xlink="http://www.w3.org/1999/xlink" x="0px" y="0px"
	 viewBox="0 0 512 512" style="enable-background:new 0 0 512 512;" xml:space="preserve">
<g transform="translate(1 1)">
	<g>
		<g>
			<path d="M442.733-1H246.467H178.2h-59.733H101.4C77.507-1,58.733,17.773,58.733,41.667v426.667
				C58.733,492.227,77.507,511,101.4,511h341.333c5.12,0,8.533-3.413,8.533-8.533V434.2V7.533C451.267,2.413,447.853-1,442.733-1z
				 M434.2,425.667H127v-409.6h42.667v76.8c0,3.413,1.707,5.973,5.12,6.827c2.56,1.707,5.973,0.853,8.533-0.853l29.013-21.333
				l29.013,22.187c1.707,0.853,3.413,1.707,5.12,1.707s2.56,0,3.413-0.853c3.413-1.707,5.12-4.267,5.12-7.68v-76.8h179.2V425.667z
				 M237.933,16.067V75.8l-20.48-15.36c-1.707-0.853-3.413-1.707-5.12-1.707s-3.413,0.853-5.12,1.707l-20.48,15.36V16.067H237.933z
				 M101.4,16.067h8.533v409.6H101.4c-0.615,0-1.229,0.016-1.843,0.045c-8.953,0.365-17.12,3.371-23.757,8.285V41.667
				C75.8,27.16,86.893,16.067,101.4,16.067z M434.2,493.933H101.4c-14.507,0-25.6-11.093-25.6-25.6c0-14.507,11.093-25.6,25.6-25.6
				h17.067H434.2V493.933z"/>
			<path d="M101.4,468.333c0,5.12,3.413,8.533,8.533,8.533h290.133c5.12,0,8.533-3.413,8.533-8.533s-3.413-8.533-8.533-8.533
				H109.933C104.813,459.8,101.4,463.213,101.4,468.333z"/>
			<path d="M245.613,154.307c-25.6,0-35.84-12.8-35.84-13.653c-1.707-1.707-4.267-3.413-6.827-3.413s-5.12,0.853-6.827,3.413
				l-17.067,25.6c-2.56,2.56-1.707,7.68,0.853,10.24c0,0,11.947,12.8,7.68,32.427c0,0-0.853,2.56-1.707,5.12
				c-1.707,5.12-3.413,12.8-5.973,21.333c-8.533,29.867,6.827,77.653,40.107,98.133c0.853,0,1.707,0.853,1.707,0.853l7.68,3.413
				c21.333,9.387,41.813,23.04,42.667,28.16c0,4.267,3.413,8.533,8.533,8.533c4.267,0,8.533-3.413,8.533-8.533
				c0.853-5.12,21.333-18.773,42.667-28.16l5.973-2.56l0.853-0.853c32.427-20.48,48.64-69.12,40.107-98.987
				c-1.707-8.533-4.267-16.213-5.973-21.333c-0.853-2.56-1.707-4.267-1.707-5.12c-4.267-19.627,6.827-31.573,7.68-32.427
				c2.56-2.56,3.413-6.827,0.853-10.24l-17.067-25.6c-1.707-1.707-4.267-3.413-6.827-3.413s-5.12,0.853-6.827,3.413
				c-0.853,0.853-10.24,13.653-35.84,13.653c-21.333,0-25.6-9.387-25.6-10.24c-0.853-3.413-4.267-5.973-7.68-5.973
				c-3.413-0.853-7.68,2.56-8.533,5.973C271.213,144.067,267.8,154.307,245.613,154.307z M280.6,158.573
				c5.973,5.973,16.213,11.093,34.133,11.093c20.48,0,33.28-6.827,40.96-11.947l8.533,11.947c-5.12,7.68-11.947,23.04-7.68,42.667
				c0,0,0.853,2.56,2.56,6.827c1.707,5.12,3.413,12.8,5.973,21.333c5.12,20.48-4.267,62.293-33.28,79.36l-6.827,3.413
				c-11.093,4.267-32.427,14.507-44.373,26.453c-11.947-11.947-32.427-22.187-43.52-26.453l-6.827-3.413
				c-29.013-17.067-39.253-58.88-33.28-79.36c1.707-8.533,4.267-16.213,5.973-21.333c0.853-3.413,1.707-5.973,1.707-6.827
				c4.267-19.627-2.56-34.987-7.68-42.667l8.533-12.8c7.68,5.973,20.48,12.8,40.96,12.8
				C264.387,169.667,274.627,163.693,280.6,158.573z"/>
			<path d="M221.72,225.987c-1.707,2.56-0.853,5.973,0.853,8.533l21.333,29.013l-5.973,32.427c0,3.413,0.853,6.827,3.413,8.533
				s5.973,2.56,8.533,0.853l30.72-14.507l30.72,14.507c0.853,0.853,2.56,0.853,3.413,0.853c1.707,0,3.413-0.853,5.12-1.707
				c2.56-1.707,4.267-5.12,3.413-8.533l-5.973-32.427l21.333-29.013c1.707-2.56,2.56-5.973,0.853-8.533
				c-1.707-3.413-4.267-5.12-7.68-5.12h-29.013l-14.507-29.013c-2.56-5.973-12.8-5.973-15.36,0l-14.507,29.013H229.4
				C225.987,220.867,223.427,223.427,221.72,225.987z M263.533,237.933c3.413,0,6.827-1.707,7.68-4.267l9.387-18.773l9.387,17.92
				c1.707,3.413,4.267,5.12,7.68,5.12h17.067l-12.8,17.92c-1.707,1.707-2.56,4.267-1.707,6.827l3.413,19.627l-18.773-9.387
				c-2.56-0.853-5.12-0.853-7.68,0l-18.773,9.387l3.413-19.627c0-2.56,0-5.12-1.707-6.827l-13.653-17.92H263.533z"/>
		</g>
	</g>
</g>
<g>
</g>
<g>
</g>
<g>
</g>
<g>
</g>
<g>
</g>
<g>
</g>
<g>
</g>
<g>
</g>
<g>
</g>
<g>
</g>
<g>
</g>
<g>
</g>
<g>
</g>
<g>
</g>
<g>
</g>
</svg>
