<?xml version="1.0" standalone="no"?>
<!DOCTYPE svg PUBLIC "-//W3C//DTD SVG 1.1//EN" "http://www.w3.org/Graphics/SVG/1.1/DTD/svg11.dtd">
<svg xmlns="http://www.w3.org/2000/svg">
<defs >
<font id="K2D" horiz-adv-x="593" ><font-face
    font-family="K2D ExtraBold"
    units-per-em="1000"
    panose-1="0 0 9 0 0 0 0 0 0 0"
    ascent="1048"
    descent="-252"
    alphabetic="0" />
<glyph unicode=" " glyph-name="space" horiz-adv-x="258" />
<glyph unicode="!" glyph-name="exclam" horiz-adv-x="305" d="M85 660T123 684T228 709V318Q228 266 191 240T85 213V609Q85 660 123 684ZM109 -9T82 16T55 80Q55 119 82 144T152 170Q195 170 222 145T250 80Q250 41 223 16T152 -9Q109 -9 82 16Z" />
<glyph unicode="&quot;" glyph-name="quotedbl" horiz-adv-x="434" d="M70 659Q77 695 103 712T179 730Q199 730 224 727L166 545Q155 511 128 494T60 476Q53 476 35 478L70 659ZM245 659Q252 695 278 712T354 730Q374 730 399 727L341 545Q330 511 303 494T235
476Q228 476 210 478L245 659Z" />
<glyph unicode="#" glyph-name="numbersign" horiz-adv-x="831" d="M191 181H40Q35 203 35 218Q35 257 58 278T124 300H206L217 391H83Q78 413 78 427Q78 467 102 489T167 511H231L246 635Q255 709 391 709L366 511H502L517 635Q522 675 560 692T662 709L637 511H791Q796
489 796 475Q796 436 772 414T707 391H622L611 300H747Q752 278 752 264Q752 225 728 203T663 181H597L584 65Q576 -9 439 -9L462 181H326L313 65Q309 25 271 8T168 -9L191 181ZM482 295L494 396H346L334 295H482Z" />
<glyph unicode="$" glyph-name="dollar" horiz-adv-x="655" d="M620 133T587 88T491 17T346 -9V-62Q346 -87 333 -100T296 -113V-8Q174 0 105 47T35 172Q35 209 63 232T157 255Q161 192 196 155T296 110V300Q203 323 150 351T73 419T49 517Q49 570 79 612T166
679T296 708V763Q296 787 309 800T346 813V709Q418 706 475 685T564 628T596 546Q596 509 569 488T478 464Q473 526 442 557T346 592V416Q447 393 506 364T593 293T620 193Q620 133 587 88ZM193 482T215 463T296 428V592Q246 587 220 568T193 515Q193 482 215 463ZM407
108T442 131T477 192Q477 228 450 248T346 288V107Q407 108 442 131Z" />
<glyph unicode="%" glyph-name="percent" horiz-adv-x="967" d="M577 691Q588 713 610 725T659 737Q703 737 741 708L394 10Q383 -12 362 -24T313 -36Q268 -36 231 -5L577 691ZM169 288T127 308T60 364T35 441V556Q35 598 59 633T126 688T220 709Q271 709 313
689T379 633T403 556V441Q403 399 379 364T313 309T220 288Q169 288 127 308ZM243 402T255 414T267 445V552Q267 570 255 582T220 595Q196 595 184 583T171 552V445Q171 426 183 414T220 402Q243 402 255 414ZM698 -9T656 11T589 67T564 144V259Q564 301 588 336T655
391T749 412Q800 412 842 392T908 336T932 259V144Q932 102 908 67T842 12T749 -9Q698 -9 656 11ZM780 109T794 121T808 152V251Q808 269 794 281T756 294Q732 294 717 282T702 251V152Q702 134 716 122T756 109Q780 109 794 121Z" />
<glyph unicode="&amp;" glyph-name="ampersand" horiz-adv-x="750" d="M219 -9T161 18T69 94T35 207Q35 267 65 313T160 403Q126 434 111 465T95 533Q95 613 146 661T282 709Q336 709 379 687T446 624T470 533Q470 488 447 454T369 375L513 242Q545 294 545 351Q545
373 541 389Q609 389 644 368T680 300Q680 267 663 233T608 154L715 53Q705 24 680 9T624 -6Q583 -6 557 17L512 56Q460 21 409 6T291 -9Q219 -9 161 18ZM325 495T325 533Q325 556 314 570T282 585Q262 585 251 571T240 533Q240 513 249 497T282 462Q325 495 325
533ZM367 119T420 154L252 310Q219 291 201 263T182 207Q182 164 213 142T296 119Q367 119 420 154Z" />
<glyph unicode="&apos;" glyph-name="quotesingle" horiz-adv-x="269" d="M70 659Q84 730 188 730Q208 730 234 727L176 545Q153 476 63 476Q55 476 35 478L70 659Z" />
<glyph unicode="(" glyph-name="parenleft" horiz-adv-x="356" d="M35 417T67 510T167 682Q183 700 206 711T253 722Q297 722 331 685Q252 593 218 503T184 301Q184 189 218 99T331 -83Q297 -120 253 -120Q229 -120 206 -109T167 -80Q99 -3 67 91T35 301Q35 417 67 510Z" />
<glyph unicode=")" glyph-name="parenright" horiz-adv-x="356" d="M321 185T289 91T189 -80Q173 -98 150 -109T103 -120Q59 -120 25 -83Q104 9 138 99T172 301Q172 413 138 503T25 685Q59 722 103 722Q127 722 150 711T189 682Q257 604 289 511T321 301Q321 185 289 91Z" />
<glyph unicode="*" glyph-name="asterisk" horiz-adv-x="517" d="M79 392L147 480L35 470V605L148 597L78 686L209 761L259 659L308 761L438 687L368 596L482 605V471L368 478L439 390L305 318L255 423L201 316L79 392Z" />
<glyph unicode="+" glyph-name="plus" horiz-adv-x="648" d="M252 229H35Q35 288 59 321T133 355H252V456Q252 509 288 532T396 555V355H613Q613 295 589 262T514 229H396V127Q396 28 252 28V229Z" />
<glyph unicode="," glyph-name="comma" horiz-adv-x="264" d="M102 -103T121 -66T141 -3Q132 -9 116 -9Q82 -9 59 15T35 79Q35 120 62 146T131 172Q176 172 202 144T229 76Q229 10 207 -43T141 -133Q134 -139 122 -142T96 -146Q73 -146 64 -137Q102 -103 121 -66Z" />
<glyph unicode="-" glyph-name="hyphen" horiz-adv-x="489" d="M35 289T58 319T129 350H454Q454 233 360 233H35Q35 289 58 319Z" />
<glyph unicode="." glyph-name="period" horiz-adv-x="235" d="M83 -9T59 13T35 71Q35 106 59 129T117 152Q151 152 175 129T200 71Q200 36 176 14T117 -9Q83 -9 59 13Z" />
<glyph unicode="/" glyph-name="slash" horiz-adv-x="580" d="M381 691Q392 713 414 725T463 737Q507 737 545 708L198 10Q187 -12 166 -24T117 -36Q72 -36 35 -5L381 691Z" />
<glyph unicode="0" glyph-name="zero" horiz-adv-x="672" d="M257 -9T192 22T88 106T50 224V476Q50 541 88 594T191 678T336 709Q415 709 480 678T584 594T622 476V224Q622 159 584 106T481 22T336 -9Q257 -9 192 22ZM400 119T437 148T475 229V471Q475 522 438
551T336 581Q272 581 235 552T197 471V229Q197 178 234 149T336 119Q400 119 437 148Z" />
<glyph unicode="1" glyph-name="one" horiz-adv-x="380" d="M173 574H124Q80 574 53 609T25 700H252Q280 700 300 682T320 638V97Q320 45 283 18T173 -9V574Z" />
<glyph unicode="2" glyph-name="two" horiz-adv-x="639" d="M72 0T54 17T35 63Q35 142 97 206T294 327Q354 352 385 374T430 421T444 481Q444 528 412 554T321 581Q253 581 220 555T187 473Q187 442 192 423Q175 420 161 420Q112 420 77 448T42 519Q42 572 78
615T179 684T321 709Q402 709 463 681T559 601T593 481Q593 407 538 345T372 236Q285 199 246 173T203 125H495Q549 125 576 94T604 0H103Q72 0 54 17Z" />
<glyph unicode="3" glyph-name="three" horiz-adv-x="652" d="M239 -9T174 16T72 86T35 189Q35 239 68 261T178 283Q175 264 175 235Q175 177 212 148T323 118Q468 118 468 205Q468 295 344 295H312Q284 295 267 312T250 357Q250 385 267 402T312 419H345Q397
419 422 439T448 502Q448 540 417 561T327 582Q262 582 227 560T191 496Q191 479 195 451Q132 449 92 472T52 534Q52 585 86 625T183 687T327 709Q408 709 469 684T563 611T597 502Q597 411 504 357Q565 329 591 295T617 205Q617 142 580 94T477 18T323 -9Q239
-9 174 16Z" />
<glyph unicode="4" glyph-name="four" horiz-adv-x="656" d="M368 172H87Q59 172 42 187T25 228Q25 255 40 273L387 686Q396 696 413 702T450 709Q479 709 497 691T516 645V297H631Q631 232 609 202T540 172H516V81Q516 34 481 13T368 -9V172ZM378 297V469L416
520L408 526L217 297H378Z" />
<glyph unicode="5" glyph-name="five" horiz-adv-x="639" d="M239 -9T175 16T73 83T35 178Q35 224 62 245T148 266Q164 266 173 265Q169 252 169 223Q169 174 208 147T316 119Q386 119 424 155T462 258Q462 319 423 354T313 389Q237 389 182 351Q157 333 126 333Q96
333 75 350T54 397Q54 405 55 409L95 647Q104 700 165 700H574Q574 575 474 575H207L191 482Q165 466 148 447L154 440Q191 472 246 491T353 511Q428 511 485 480T573 392T604 258Q604 134 527 63T316 -9Q239 -9 175 16Z" />
<glyph unicode="6" glyph-name="six" horiz-adv-x="666" d="M244 -9T177 25T72 121T35 265Q35 317 58 373T121 474L303 677Q320 695 335 702T372 709Q431 709 469 662L347 523Q334 520 315 513T285 501L291 488Q309 497 337 503T387 509Q456 509 512 478T599 390T631
265Q631 184 594 122T489 26T333 -9Q244 -9 177 25ZM403 116T445 157T488 265Q488 333 446 374T333 416Q264 416 222 375T179 265Q179 198 221 157T333 116Q403 116 445 157Z" />
<glyph unicode="7" glyph-name="seven" horiz-adv-x="611" d="M404 574H124Q76 574 51 606T25 700H516Q547 700 566 683T586 640Q586 626 578 608L295 35Q273 -9 219 -9Q190 -9 169 -3T129 19L404 574Z" />
<glyph unicode="8" glyph-name="eight" horiz-adv-x="656" d="M240 -10T174 17T71 93T35 208Q35 261 64 302T148 369Q59 422 59 509Q59 567 93 612T189 683T328 709Q407 709 468 684T563 614T597 509Q597 422 508 369Q563 344 592 303T621 208Q621 142 586 93T484
17T328 -10Q240 -10 174 17ZM387 418T420 440T454 502Q454 543 422 564T328 586Q268 586 235 564T202 502Q202 464 236 441T328 418Q387 418 420 440ZM402 113T440 138T478 213Q478 262 439 289T328 316Q258 316 218 289T178 213Q178 165 217 139T328 113Q402 113
440 138Z" />
<glyph unicode="9" glyph-name="nine" horiz-adv-x="666" d="M424 709T491 676T595 581T631 435Q631 383 608 327T545 226L363 23Q346 5 331 -2T294 -9Q235 -9 197 38L328 177Q342 180 361 187T390 199L384 212Q345 191 294 191Q216 191 158 221T67 306T35 435Q35
519 71 581T174 676T333 709Q424 709 491 676ZM263 584T221 544T178 435Q178 367 220 326T333 284Q403 284 445 325T487 435Q487 502 445 543T333 584Q263 584 221 544Z" />
<glyph unicode=":" glyph-name="colon" horiz-adv-x="263" d="M89 337T62 363T35 431Q35 471 62 498T131 526Q171 526 199 499T228 431Q228 390 200 364T131 337Q89 337 62 363ZM90 -9T63 17T35 85Q35 126 62 153T131 180Q171 180 199 153T228 85Q228 44 200 18T131
-9Q90 -9 63 17Z" />
<glyph unicode=";" glyph-name="semicolon" horiz-adv-x="264" d="M89 337T62 363T35 431Q35 471 62 498T131 526Q171 526 199 499T228 431Q228 390 200 364T131 337Q89 337 62 363ZM102 -103T121 -66T141 -3Q132 -9 116 -9Q82 -9 59 15T35 79Q35 120 62 146T131
172Q176 172 202 144T229 76Q229 10 207 -43T141 -133Q134 -139 122 -142T96 -146Q73 -146 64 -137Q102 -103 121 -66Z" />
<glyph unicode="&lt;" glyph-name="less" horiz-adv-x="675" d="M74 238Q35 255 35 292Q35 310 45 324T74 346L611 572Q640 534 640 496Q640 470 626 450T585 419L251 292L584 165Q609 156 622 134T636 84Q636 45 611 11L74 238Z" />
<glyph unicode="=" glyph-name="equal" horiz-adv-x="647" d="M35 387T59 420T133 453H612Q612 393 588 360T514 327H35Q35 387 59 420ZM35 190T59 223T133 256H612Q612 196 588 163T514 130H35Q35 190 59 223Z" />
<glyph unicode="&gt;" glyph-name="greater" horiz-adv-x="675" d="M39 45T39 84Q39 111 52 133T91 165L424 292L90 419Q63 429 49 449T35 496Q35 534 64 572L601 346Q619 338 629 324T640 292Q640 255 601 238L64 11Q39 45 39 84Z" />
<glyph unicode="?" glyph-name="question" horiz-adv-x="573" d="M209 282Q209 325 234 353T308 413Q349 440 369 461T389 510Q389 546 366 564T290 582Q238 582 210 556T182 485Q182 465 186 445Q169 442 152 442Q104 442 70 465T35 528Q35 575 68 617T160 684T290
709Q361 709 417 685T506 617T538 520Q538 484 520 455T478 406T416 359Q383 336 368 322T352 294V274Q352 202 209 202V282ZM233 -9T206 16T179 80Q179 119 206 144T276 170Q319 170 346 145T374 80Q374 41 347 16T276 -9Q233 -9 206 16Z" />
<glyph unicode="@" glyph-name="at" horiz-adv-x="831" d="M304 -9T216 37T81 163T35 346Q35 453 82 535T216 663T420 709Q529 709 614 673T748 568T796 403Q796 334 767 278T687 190T570 158Q532 158 505 176T470 226Q453 196 418 177T342 158Q280 158 246 195T212
299Q212 370 239 426T313 513T418 545Q449 545 472 531T508 495L519 531H613L542 288Q540 283 540 274Q540 251 572 251Q613 251 641 292T669 404Q669 512 603 556T420 601Q295 601 229 535T162 346Q162 228 230 164T428 100Q529 100 599 135Q613 141 626 141Q648
141 669 126T704 85Q597 -9 428 -9Q304 -9 216 37ZM401 246T427 293T454 411Q454 435 445 446T417 457Q391 457 368 437T332 381T318 297Q318 270 328 258T361 246Q401 246 427 293Z" />
<glyph unicode="A" glyph-name="A" horiz-adv-x="698" d="M89 -5T62 22T35 90Q35 122 51 157L277 660Q288 685 305 697T349 709Q375 709 392 697T421 660L647 157Q663 122 663 91Q663 49 636 22T560 -9L476 174H221L137 -9Q89 -5 62 22ZM431 300L328 556L314 550L341
483L265 300H431Z" />
<glyph unicode="B" glyph-name="B" horiz-adv-x="677" d="M99 0T77 19T55 67V633Q55 661 76 680T129 700H394Q494 700 553 646T613 501Q613 460 591 423T531 363V359Q582 341 612 300T642 209Q642 148 613 101T532 27T413 0H129Q99 0 77 19ZM392 411Q423 411 444
435T466 495Q466 533 446 554T392 576H198V411H392ZM412 124Q450 124 472 146T495 207Q495 246 473 267T412 289H198V124H412Z" />
<glyph unicode="C" glyph-name="C" horiz-adv-x="686" d="M256 -9T185 26T75 123T35 266V436Q35 516 73 578T181 674T340 709Q429 709 499 683T607 608T646 499Q646 459 620 437T549 414Q523 414 498 421Q501 442 501 472Q501 520 456 550T340 581Q270 581 226
541T182 436V266Q182 201 227 160T346 119Q417 119 461 149T506 227Q506 260 503 275Q530 281 552 281Q597 281 624 258T651 195Q651 136 613 90T505 17T346 -9Q256 -9 185 26Z" />
<glyph unicode="D" glyph-name="D" horiz-adv-x="687" d="M98 0T77 19T55 67V633Q55 662 76 681T129 700H347Q437 700 506 666T613 568T652 424V278Q652 197 614 134T506 35T347 0H129Q98 0 77 19ZM337 126Q420 126 462 164T505 276V426Q505 499 463 536T337 574H202V126H337Z"
/>
<glyph unicode="E" glyph-name="E" horiz-adv-x="631" d="M55 633Q55 661 76 680T129 700H576Q576 634 554 604T483 574H202V416H464Q464 350 442 320T371 290H202V126H504Q552 126 574 96T596 0H129Q98 0 77 19T55 67V633Z" />
<glyph unicode="F" glyph-name="F" horiz-adv-x="619" d="M55 633Q55 661 76 680T129 700H584Q584 634 562 604T491 574H202V421H464Q464 355 442 325T371 295H202V92Q202 39 168 15T55 -9V633Z" />
<glyph unicode="G" glyph-name="G" horiz-adv-x="685" d="M256 -9T185 26T75 123T35 266V436Q35 516 73 578T181 674T340 709Q429 709 499 683T607 609T646 501Q646 462 620 440T549 417Q523 417 498 424Q501 445 501 474Q501 522 456 552T340 583Q270 583 226
542T182 436V266Q182 200 227 159T346 117Q416 117 460 149T504 231V254H431Q390 254 365 286T339 369H582Q612 369 631 351T650 302V228Q650 159 612 105T504 21T346 -9Q256 -9 185 26Z" />
<glyph unicode="H" glyph-name="H" horiz-adv-x="685" d="M55 603Q55 655 92 682T202 709V416H483V603Q483 655 520 682T630 709V97Q630 45 593 18T483 -9V289H202V97Q202 45 165 18T55 -9V603Z" />
<glyph unicode="I" glyph-name="I" horiz-adv-x="297" d="M75 602Q75 652 113 680T222 709V98Q222 47 184 19T75 -9V602Z" />
<glyph unicode="J" glyph-name="J" horiz-adv-x="621" d="M220 -9T158 20T60 100T25 215Q25 260 63 277T173 295Q170 279 170 247Q170 184 202 152T297 119Q359 119 391 155T424 259V573H329Q279 573 255 604T230 700H499Q529 700 550 681T571 633V259Q571 182
536 121T438 26T297 -9Q220 -9 158 20Z" />
<glyph unicode="K" glyph-name="K" horiz-adv-x="655" d="M55 600Q55 652 93 680T202 709V395L527 709Q555 688 572 664T589 621Q589 604 578 590T543 553L354 375L620 38Q586 -9 531 -9Q479 -9 449 30L255 283L202 231V92Q202 39 167 15T55 -9V600Z" />
<glyph unicode="L" glyph-name="L" horiz-adv-x="588" d="M100 0T78 23T55 78V603Q55 657 91 683T202 709V127H460Q510 127 536 95T563 0H132Q100 0 78 23Z" />
<glyph unicode="M" glyph-name="M" horiz-adv-x="805" d="M55 602Q55 651 95 680T202 710L402 200L377 132L388 127L603 709Q670 709 710 680T750 601V-9Q607 -9 607 96V382L643 482L631 486L461 30Q454 13 438 2T403 -9Q383 -9 367 2T344 31L174 488L162 483L198
383V96Q198 -9 55 -9V602Z" />
<glyph unicode="N" glyph-name="N" horiz-adv-x="675" d="M55 594Q55 647 91 678T188 709L509 201L520 210L475 285V709Q546 709 583 682T620 603V88Q620 63 605 41T563 5T508 -9L166 532L155 523L200 448V97Q200 45 163 18T55 -9V594Z" />
<glyph unicode="O" glyph-name="O" horiz-adv-x="672" d="M254 -9T185 23T76 111T35 231V469Q35 533 75 588T185 676T336 709Q418 709 487 677T596 589T637 469V231Q637 167 597 112T487 24T336 -9Q254 -9 185 23ZM404 119T447 151T490 234V466Q490 517 447 549T336
581Q268 581 225 549T182 466V234Q182 183 225 151T336 119Q404 119 447 151Z" />
<glyph unicode="P" glyph-name="P" horiz-adv-x="688" d="M55 633Q55 662 76 681T129 700H402Q476 700 533 671T621 588T653 465Q653 394 622 341T535 258T402 229H202V97Q202 45 165 18T55 -9V633ZM402 356Q452 356 479 384T506 466Q506 517 479 545T402 573H202V356H402Z"
/>
<glyph unicode="Q" glyph-name="Q" horiz-adv-x="701" d="M556 -30T529 -15T484 26Q452 9 414 0T336 -9Q254 -9 185 23T76 111T35 231V469Q35 533 75 588T185 676T336 709Q418 709 487 677T596 589T637 469V231Q637 152 581 93Q594 75 618 65T666 56Q666 10 648
-10T589 -30Q556 -30 529 -15ZM490 220T490 232V466Q490 517 447 549T336 581Q268 581 225 549T182 466V299Q212 307 238 307Q318 307 375 287T487 208Q490 220 490 232ZM370 117T409 130Q371 175 332 188T229 202Q215 202 190 197Q205 162 244 140T336 117Q370
117 409 130Z" />
<glyph unicode="R" glyph-name="R" horiz-adv-x="670" d="M55 633Q55 662 76 681T129 700H392Q504 700 564 643T625 479Q625 420 602 380T529 317V313Q616 274 616 166V97Q616 45 579 18T469 -9V161Q469 211 450 234T390 258H200V97Q200 45 163 18T55 -9V633ZM384
383Q430 383 454 408T478 480Q478 529 456 552T384 575H200V383H384Z" />
<glyph unicode="S" glyph-name="S" horiz-adv-x="655" d="M198 -9T117 39T35 172Q35 209 63 232T157 255Q161 182 207 145T338 107Q403 107 440 129T477 192Q477 219 463 236T415 267T314 296Q214 319 157 348T75 417T49 517Q49 574 83 617T180 685T324 709Q402
709 464 689T561 631T596 546Q596 509 569 488T478 464Q473 531 437 562T324 593Q261 593 227 573T193 515Q193 489 206 473T250 443T341 417Q444 394 504 365T592 294T620 193Q620 132 586 86T488 16T338 -9Q198 -9 117 39Z" />
<glyph unicode="T" glyph-name="T" horiz-adv-x="678" d="M266 573H25Q25 700 140 700H653Q653 573 538 573H413V97Q413 45 376 18T266 -9V573Z" />
<glyph unicode="U" glyph-name="U" horiz-adv-x="700" d="M264 -9T196 25T89 122T50 261V603Q50 655 87 682T197 709V261Q197 196 238 158T350 119Q420 119 461 157T503 261V603Q503 655 540 682T650 709V261Q650 184 612 122T505 26T350 -9Q264 -9 196 25Z" />
<glyph unicode="V" glyph-name="V" horiz-adv-x="721" d="M307 -9T289 40L35 694Q46 700 64 704T99 709Q185 709 209 640L353 236L328 168L340 163L512 640Q538 709 622 709Q638 709 656 705T686 694L433 40Q415 -9 361 -9Q307 -9 289 40Z" />
<glyph unicode="W" glyph-name="W" horiz-adv-x="922" d="M273 -9T238 15T190 85L35 692Q64 709 105 709Q146 709 171 691T204 638L280 290L259 207L269 204L396 659Q403 682 420 695T461 709Q485 709 502 696T526 659L626 280L605 192L618 188L718 638Q726 673
751 691T817 709Q858 709 887 692L732 85Q720 39 685 15T594 -9L448 530L439 527L456 464L328 -9Q273 -9 238 15Z" />
<glyph unicode="X" glyph-name="X" horiz-adv-x="706" d="M69 -9T35 29L271 360L46 681Q58 694 79 701T124 709Q156 709 183 699T221 672L344 480L315 439L326 431L485 672Q495 688 522 698T582 709Q605 709 626 702T660 681L435 360L671 29Q637 -9 585 -9Q530
-9 503 30L353 253L203 30Q191 12 169 2T121 -9Q69 -9 35 29Z" />
<glyph unicode="Y" glyph-name="Y" horiz-adv-x="711" d="M282 250L35 694Q45 700 66 704T106 709Q146 709 173 693T220 640L353 392L323 330L335 325L491 640Q525 709 605 709Q623 709 644 705T676 694L429 249V97Q429 45 392 18T282 -9V250Z" />
<glyph unicode="Z" glyph-name="Z" horiz-adv-x="700" d="M71 0T53 17T35 62Q35 88 49 105L487 613L477 621L435 575H163Q112 575 86 607T59 700H596Q628 700 645 684T663 638Q663 612 649 595L216 87L226 79L267 125H562Q612 125 638 93T665 0H102Q71 0 53 17Z" />
<glyph unicode="[" glyph-name="bracketleft" horiz-adv-x="391" d="M55 797H356Q356 734 336 703T263 671H202V-13H264Q315 -13 335 -45T356 -139H55V797Z" />
<glyph unicode="\" glyph-name="backslash" horiz-adv-x="580" d="M508 -36T463 -36Q436 -36 415 -24T382 10L35 708Q73 737 117 737Q144 737 166 725T199 691L545 -5Q508 -36 463 -36Z" />
<glyph unicode="]" glyph-name="bracketright" horiz-adv-x="391" d="M35 -139Q35 -77 55 -45T127 -13H189V671H128Q76 671 56 702T35 797H336V-139H35Z" />
<glyph unicode="^" glyph-name="asciicircum" horiz-adv-x="658" d="M264 709Q282 743 328 743Q376 743 392 709L623 251Q612 239 594 233T553 226Q524 226 500 237T465 270L329 546L193 270Q182 249 158 238T105 226Q83 226 65 232T35 251L264 709Z" />
<glyph unicode="_" glyph-name="underscore" horiz-adv-x="610" d="M35 -110T58 -80T129 -49H575Q575 -166 481 -166H35Q35 -110 58 -80Z" />
<glyph unicode="`" glyph-name="grave" horiz-adv-x="372" d="M302 517T279 517Q247 517 230 523T199 547L35 756H130Q203 756 230 710L337 520Q302 517 279 517Z" />
<glyph unicode="a" glyph-name="a" horiz-adv-x="544" d="M172 -9T130 10T61 67T35 158Q35 211 63 249T137 308T239 328Q285 328 320 314T387 273L392 279Q371 298 359 306V319Q359 357 332 379T254 402Q210 402 176 386T121 339Q97 345 81 361T64 398Q64 429
91 454T164 494T267 509Q376 509 435 459T494 323V80Q494 33 464 12T367 -9V30Q382 44 391 55L386 60Q353 26 317 9T221 -9Q172 -9 130 10ZM307 89T334 107T361 159Q361 192 334 211T259 230Q217 230 193 211T168 159Q168 125 192 107T259 89Q307 89 334 107Z"
/>
<glyph unicode="b" glyph-name="b" horiz-adv-x="569" d="M55 619Q55 661 89 685T194 709V481Q177 469 172 461L176 456Q202 481 245 495T324 509Q413 509 466 459T519 328V173Q519 121 493 80T423 15T330 -9Q275 -9 237 12T167 76L162 72Q167 63 181 46Q181 20
152 6T55 -9V619ZM333 109T357 128T382 183V318Q382 353 358 372T287 391Q245 391 219 371T192 322V178Q192 148 218 129T287 109Q333 109 357 128Z" />
<glyph unicode="c" glyph-name="c" horiz-adv-x="520" d="M209 -9T158 15T79 81T50 178V311Q50 369 78 414T158 484T274 509Q335 509 382 492T455 443T482 372Q482 339 456 319T387 299Q374 299 368 300Q368 340 343 365T278 391Q238 391 213 367T187 304V188Q187
153 212 131T279 109Q319 109 344 134T370 199Q377 200 390 200Q433 200 459 181T485 128Q485 88 459 57T384 9T275 -9Q209 -9 158 15Z" />
<glyph unicode="d" glyph-name="d" horiz-adv-x="569" d="M186 -9T143 14T75 79T50 173V327Q50 379 76 420T150 485T254 509Q288 509 327 495T393 456L397 461Q392 469 375 481V619Q375 661 409 685T514 709V82Q514 43 483 17T388 -9V45Q400 60 407 72L402 76Q370
33 334 12T239 -9Q186 -9 143 14ZM324 109T350 128T377 178V322Q377 351 351 371T282 391Q236 391 212 372T187 318V183Q187 147 211 128T282 109Q324 109 350 128Z" />
<glyph unicode="e" glyph-name="e" horiz-adv-x="534" d="M217 -9T165 16T81 84T50 180V308Q50 364 81 410T166 483T280 509Q340 509 390 485T470 416T499 315V261Q499 237 481 221T435 204H183V190Q183 150 207 125T280 99Q327 99 349 119T371 171Q391 173 401
173Q442 173 464 156T486 106Q486 79 459 52T385 8T279 -9Q217 -9 165 16ZM375 301V315Q375 355 349 378T279 402Q236 402 210 379T183 315V301H375Z" />
<glyph unicode="f" glyph-name="f" horiz-adv-x="427" d="M104 399H25Q25 451 39 475T84 500H104V534Q104 609 148 659T279 709Q339 709 370 684T402 626Q402 611 396 596T378 571Q341 591 303 591Q271 591 256 577T241 529V500H372Q372 446 352 423T286 399H241V71Q241
28 208 10T104 -9V399Z" />
<glyph unicode="g" glyph-name="g" horiz-adv-x="554" d="M203 -209T156 -193T84 -148T58 -86Q58 -50 83 -35T156 -20Q166 -101 264 -101Q320 -101 342 -74T365 3V29Q382 41 387 49L383 54Q357 29 314 15T235 1Q180 1 136 24T66 88T40 182V327Q40 377 66 418T137
484T229 509Q284 509 322 488T392 424L397 428Q392 437 378 454Q378 509 504 509V24Q504 -43 473 -96T387 -179T264 -209Q203 -209 156 -193ZM314 118T341 138T368 188V322Q368 352 341 372T272 392Q226 392 202 373T177 317V192Q177 157 201 138T272 118Q314 118
341 138Z" />
<glyph unicode="h" glyph-name="h" horiz-adv-x="565" d="M55 605Q55 654 90 681T192 709V450Q177 434 167 416L174 412Q241 509 348 509Q398 509 436 486T497 423T519 332V71Q519 28 485 10T382 -9V311Q382 345 361 368T300 391Q252 391 222 360T192 282V71Q192
28 158 10T55 -9V605Z" />
<glyph unicode="i" glyph-name="i" horiz-adv-x="288" d="M106 547T81 569T55 628Q55 664 80 686T144 709Q182 709 207 687T233 628Q233 592 208 570T144 547Q106 547 81 569ZM75 429Q75 472 109 490T212 509V71Q212 28 178 10T75 -9V429Z" />
<glyph unicode="j" glyph-name="j" horiz-adv-x="429" d="M247 547T222 569T196 628Q196 664 221 686T285 709Q323 709 348 687T374 628Q374 592 349 570T285 547Q247 547 222 569ZM103 -209T64 -180T25 -108Q25 -89 33 -75T55 -54Q86 -91 142 -91Q179 -91 197
-72T216 -18V429Q216 472 250 490T353 509V-19Q353 -72 329 -115T262 -184T164 -209Q103 -209 64 -180Z" />
<glyph unicode="k" glyph-name="k" horiz-adv-x="548" d="M518 32Q496 -9 447 -9Q426 -9 410 0T380 30L257 206L191 144V71Q191 28 157 10T55 -9V605Q55 709 193 709V298L418 509Q475 465 475 439Q475 423 467 411T439 380L336 282L518 32Z" />
<glyph unicode="l" glyph-name="l" horiz-adv-x="373" d="M138 -9T94 40T50 166V629Q50 672 83 690T187 709V171Q187 138 202 124T249 109Q287 109 324 129Q335 119 341 104T348 74Q348 42 317 17T225 -9Q138 -9 94 40Z" />
<glyph unicode="m" glyph-name="m" horiz-adv-x="784" d="M55 405Q55 455 87 482T184 509V450Q169 434 159 416L166 412Q198 460 232 484T315 509Q400 509 433 424Q458 464 497 486T585 509Q653 509 693 459T734 332V71Q734 28 701 10T599 -9V320Q599 354 584
374T537 394Q505 394 483 372T461 296V71Q461 28 429 10T328 -9V320Q328 354 313 374T267 394Q190 394 190 291V71Q190 28 157 10T55 -9V405Z" />
<glyph unicode="n" glyph-name="n" horiz-adv-x="569" d="M55 405Q55 455 88 482T186 509V450Q171 434 161 416L168 412Q198 458 244 483T348 509Q398 509 436 486T497 423T519 332V71Q519 28 485 10T382 -9V311Q382 345 361 368T300 391Q252 391 222 360T192
282V71Q192 28 159 10T55 -9V405Z" />
<glyph unicode="o" glyph-name="o" horiz-adv-x="542" d="M205 -9T151 15T66 81T35 178V311Q35 366 65 411T149 483T271 509Q339 509 393 483T477 412T507 311V178Q507 124 476 82T391 15T271 -9Q205 -9 151 15ZM318 109T344 130T370 188V304Q370 343 344 367T271
391Q225 391 199 367T172 304V188Q172 151 198 130T271 109Q318 109 344 130Z" />
<glyph unicode="p" glyph-name="p" horiz-adv-x="554" d="M55 418Q55 456 87 482T181 509V455Q169 440 162 428L167 424Q198 467 236 488T333 509Q387 509 429 486T495 422T519 327V173Q519 119 493 78T420 14T315 -9Q281 -9 242 5T176 44L172 39Q177 31 194 19V-119Q194
-209 55 -209V418ZM333 109T357 128T382 182V317Q382 353 358 372T287 391Q245 391 219 372T192 322V178Q192 149 218 129T287 109Q333 109 357 128Z" />
<glyph unicode="q" glyph-name="q" horiz-adv-x="556" d="M505 -119Q505 -209 366 -209V19Q383 31 388 39L384 44Q358 19 315 5T236 -9Q147 -9 94 41T41 172V327Q41 379 67 420T137 485T230 509Q285 509 323 488T393 424L398 428Q393 437 379 454Q379 509 505
509V-119ZM227 391T203 372T178 317V182Q178 147 202 128T273 109Q315 109 341 129T368 178V322Q368 352 342 371T273 391Q227 391 203 372Z" />
<glyph unicode="r" glyph-name="r" horiz-adv-x="441" d="M266 391T229 360T192 282V71Q192 28 159 10T55 -9V405Q55 455 88 482T186 509V450Q171 434 161 416L168 412Q231 509 325 509Q370 509 393 485T416 424Q416 396 401 375Q373 391 326 391Q266 391 229 360Z" />
<glyph unicode="s" glyph-name="s" horiz-adv-x="518" d="M164 -9T105 25T46 118Q46 144 68 162T141 180Q149 140 181 118T256 95Q306 95 333 107T361 142Q361 162 339 177T251 208Q174 226 132 244T69 291T49 365Q49 430 103 469T256 509Q352 509 412 476T472
388Q472 360 451 348T381 334Q368 372 342 390T266 409Q231 409 204 397T177 368Q177 349 199 338T275 316Q390 291 440 250T491 139Q491 96 464 62T386 10T266 -9Q164 -9 105 25Z" />
<glyph unicode="t" glyph-name="t" horiz-adv-x="467" d="M221 -9T181 40T141 166V399H35Q35 450 54 475T104 500H143V579Q143 622 176 640T276 659V500H409Q409 446 389 423T323 399H278V171Q278 138 291 124T336 109Q371 109 408 129Q419 119 425 104T432 74Q432
54 418 35T376 4T306 -9Q221 -9 181 40Z" />
<glyph unicode="u" glyph-name="u" horiz-adv-x="563" d="M508 95Q508 45 475 18T377 -9V50Q392 66 402 84L395 88Q332 -9 225 -9Q175 -9 134 14T70 80T46 177V429Q46 472 79 490T183 509V187Q183 151 205 130T269 109Q317 109 344 139T371 218V429Q371 472 404
490T508 509V95Z" />
<glyph unicode="v" glyph-name="v" horiz-adv-x="570" d="M258 -9T239 3T211 36L35 498Q42 503 61 506T94 509Q126 509 151 497T185 459L278 163L261 114L270 111L385 459Q393 484 418 496T476 509Q489 509 508 506T535 498L359 36Q351 15 332 3T285 -9Q258 -9 239 3Z" />
<glyph unicode="w" glyph-name="w" horiz-adv-x="744" d="M225 -9T191 11T147 68L35 497Q44 502 62 505T96 509Q129 509 151 495T179 457L229 209L215 149L222 147L306 464Q312 484 329 496T372 509Q399 509 417 497T440 464L504 201L488 138L495 136L565 457Q570
480 593 494T648 509Q665 509 682 506T709 497L598 68Q589 32 550 12T459 -9L363 383L357 381L369 335L277 -9Q225 -9 191 11Z" />
<glyph unicode="x" glyph-name="x" horiz-adv-x="577" d="M92 -9T70 -3T35 18L209 257L50 489Q58 498 81 503T122 509Q180 509 200 477L282 345L261 316L269 310L377 477Q398 509 460 509Q478 509 498 504T527 489L367 257L542 18Q529 4 509 -2T469 -9Q447 -9
426 -1T395 19L288 178L182 19Q173 6 154 -1T113 -9Q92 -9 70 -3Z" />
<glyph unicode="y" glyph-name="y" horiz-adv-x="586" d="M103 -209T79 -180T55 -93Q84 -99 108 -99Q133 -99 149 -92T179 -64T212 -4L227 30L35 498Q42 503 61 506T94 509Q125 509 151 496T187 459L285 198L268 149L277 146L399 459Q409 484 434 496T492 509Q505
509 524 506T551 498L328 -44Q293 -129 251 -169T145 -209Q103 -209 79 -180Z" />
<glyph unicode="z" glyph-name="z" horiz-adv-x="530" d="M62 0T49 16T35 55Q35 73 46 86L344 427L338 432L307 399H129Q92 399 73 427T53 500H444Q467 500 481 485T495 449Q495 428 482 414L184 73L191 67L222 101H420Q457 101 476 73T495 0H85Q62 0 49 16Z" />
<glyph unicode="{" glyph-name="braceleft" horiz-adv-x="411" d="M188 -124T157 -89T125 12V183Q125 210 115 225T86 240Q63 240 49 256T35 301Q35 330 49 346T86 362Q104 362 114 377T125 419V590Q125 656 156 691T249 726H376Q376 667 361 636T307 605H293Q284
605 278 600T272 585V422Q272 379 259 349T213 301Q245 283 258 253T272 180V17Q272 8 278 3T293 -3H307Q345 -3 360 -34T376 -124H249Q188 -124 157 -89Z" />
<glyph unicode="|" glyph-name="bar" horiz-adv-x="257" d="M55 670Q55 723 95 750T202 777V-46Q202 -99 163 -126T55 -153V670Z" />
<glyph unicode="}" glyph-name="braceright" horiz-adv-x="411" d="M35 -65T50 -34T104 -3H118Q127 -3 133 2T139 17V180Q139 223 152 253T198 301Q166 319 153 349T139 422V585Q139 594 133 599T118 605H104Q66 605 51 636T35 726H162Q223 726 254 691T286 590V419Q286
392 296 377T325 362Q348 362 362 346T376 301Q376 272 362 256T325 240Q307 240 297 225T286 183V12Q286 -54 255 -89T162 -124H35Q35 -65 50 -34Z" />
<glyph unicode="~" glyph-name="asciitilde" horiz-adv-x="617" d="M391 240T358 249T279 277Q238 293 215 300T169 307Q139 307 120 296T74 253Q35 294 35 336Q35 377 71 405T169 433Q205 433 238 424T316 396Q352 381 377 374T425 366Q456 366 481 379T525 428Q553
415 567 394T582 349Q582 322 563 297T509 256T425 240Q391 240 358 249Z" />
<glyph unicode="&#xa0;" glyph-name="uni00A0" horiz-adv-x="258" />
<glyph unicode="&#xa1;" glyph-name="exclamdown" horiz-adv-x="305" d="M195 509T222 484T250 420Q250 381 223 356T152 330Q109 330 82 355T55 420Q55 459 82 484T152 509Q195 509 222 484ZM85 287Q153 287 190 261T228 182V-209Q162 -209 124 -185T85 -109V287Z" />
<glyph unicode="&#xa2;" glyph-name="cent" horiz-adv-x="520" d="M485 70T433 33T294 -9V-52Q294 -79 282 -91T244 -103V-8Q157 0 104 51T50 178V311Q50 392 103 445T244 508V552Q244 578 255 590T294 602V508Q378 504 430 467T482 372Q482 339 456 319T387 299Q374
299 368 300Q368 336 348 360T294 390V110Q329 115 349 139T370 199Q377 200 390 200Q433 200 459 181T485 128Q485 70 433 33ZM187 161T202 142T244 114V386Q218 377 203 355T187 304V188Q187 161 202 142Z" />
<glyph unicode="&#xa3;" glyph-name="sterling" horiz-adv-x="601" d="M35 53T51 83T100 126Q146 143 164 164T182 225Q182 265 162 321H51Q51 346 64 361T101 377H141Q128 412 121 441T114 504Q114 602 178 655T351 709Q400 709 445 694T519 652T548 593Q548
568 539 551T506 517Q475 550 441 565T359 580Q259 580 259 487Q259 461 265 435T282 377H459Q459 352 446 337T409 321H304Q325 267 325 233Q325 199 313 175T276 126H454Q566 126 566 0H35Q35 53 51 83Z" />
<glyph unicode="&#xa4;" glyph-name="currency" horiz-adv-x="735" d="M277 74T211 117L187 93Q164 70 127 70Q96 70 70 87T35 134L113 212Q88 250 78 279T67 349Q67 389 78 420T113 489L35 566Q43 596 69 613T127 631Q162 631 187 608L212 582Q247 602 287 613T367
625Q407 625 447 614T523 582L548 608Q573 631 608 631Q640 631 666 614T700 566L621 489Q646 451 657 421T668 349Q668 308 658 279T621 212L700 134Q692 104 666 87T608 70Q571 70 548 93L524 117Q458 74 367 74Q277 74 211 117ZM412 196T448 217T504 273T524
349Q524 389 504 423T448 479T367 500Q322 500 287 479T231 424T211 349Q211 309 231 274T286 217T367 196Q412 196 448 217Z" />
<glyph unicode="&#xa5;" glyph-name="yen" horiz-adv-x="711" d="M429 213V157H534Q534 133 522 123T484 113H429V97Q429 45 392 18T282 -9V113H175Q175 136 187 146T225 157H282V213H175Q175 236 187 246T225 257H278L35 694Q45 700 66 704T106 709Q146 709 173
693T220 640L353 392L323 330L335 325L491 640Q525 709 605 709Q623 709 644 705T676 694L433 257H534Q534 233 522 223T484 213H429Z" />
<glyph unicode="&#xa6;" glyph-name="brokenbar" horiz-adv-x="257" d="M55 670Q55 723 95 750T202 777V471Q202 418 163 391T55 364V670ZM55 153Q55 206 95 233T202 260V-46Q202 -99 163 -126T55 -153V153Z" />
<glyph unicode="&#xa7;" glyph-name="section" horiz-adv-x="528" d="M214 -9T159 8T69 56T35 128Q35 162 57 178T117 194Q125 194 143 192Q138 145 178 120T275 95Q365 95 365 136Q365 151 356 160T326 176T253 197Q147 224 99 260T51 365Q51 421 99 461Q51 499
51 565Q51 608 78 640T153 691T258 709Q311 709 361 693T442 647T474 582Q474 520 393 520Q375 520 355 523Q357 563 331 584T258 605Q223 605 201 595T179 565Q179 544 201 532T277 509Q394 485 443 447T493 339Q493 275 440 241Q469 223 481 198T493 139Q493
67 434 29T275 -9Q214 -9 159 8ZM352 299T358 309T365 334Q365 347 357 356T326 374T255 397L210 409Q196 406 188 395T179 367Q179 348 201 336T279 309Q315 299 335 289Q352 299 358 309Z" />
<glyph unicode="&#xa8;" glyph-name="dieresis" horiz-adv-x="431" d="M77 526T56 546T35 599Q35 631 56 652T110 673Q143 673 163 652T184 599Q184 567 164 547T110 526Q77 526 56 546ZM289 526T268 546T247 599Q247 632 268 652T322 673Q354 673 375 652T396
599Q396 567 376 547T322 526Q289 526 268 546Z" />
<glyph unicode="&#xa9;" glyph-name="copyright" horiz-adv-x="816" d="M299 -9T215 36T83 163T35 349Q35 454 82 536T214 663T407 709Q516 709 601 664T733 536T781 349Q781 245 734 164T601 37T407 -9Q299 -9 215 36ZM481 92T539 124T629 215T662 348Q662 424
630 483T539 575T407 608Q333 608 276 575T186 483T154 348Q154 273 186 215T275 125T407 92Q481 92 539 124ZM363 133T321 153T255 209T230 286V416Q230 457 255 492T321 547T412 568Q458 568 499 550T566 502T592 439Q592 411 572 394T520 377Q497 377 470 388Q475
401 475 412Q475 435 458 449T412 464Q387 464 369 450T351 416V286Q351 266 369 252T412 238Q441 238 457 252T474 290Q474 300 471 312Q494 325 521 325Q550 325 571 309T592 266Q592 232 567 201T501 152T412 133Q363 133 321 153Z" />
<glyph unicode="&#xaa;" glyph-name="ordfeminine" horiz-adv-x="450" d="M119 297T77 334T35 430Q35 489 81 527T197 565Q232 565 260 555T315 521L319 526Q307 537 293 547V558Q293 589 271 606T209 624Q137 624 104 574Q84 579 71 591T58 620Q58 645 79 665T138
697T219 709Q304 709 352 670T400 561V368Q400 331 376 314T299 297V328Q313 342 318 348L314 352Q286 322 256 310T183 297Q119 297 77 334ZM252 375T273 389T294 431Q294 457 273 472T213 487Q180 487 161 472T141 431Q141 404 159 390T213 375Q252 375 273 389Z"
/>
<glyph unicode="&#xab;" glyph-name="guillemotleft" horiz-adv-x="563" d="M53 249Q35 271 35 292Q35 313 53 335L197 500Q209 513 226 520T262 527Q286 527 304 515T328 479L164 292L328 105Q315 81 296 70T255 58Q219 58 196 85L53 249ZM253 249Q235 271 235
292Q235 313 253 335L397 500Q409 513 426 520T462 527Q486 527 504 515T528 479L364 292L528 105Q515 81 496 70T455 58Q419 58 396 85L253 249Z" />
<glyph unicode="&#xac;" glyph-name="logicalnot" horiz-adv-x="591" d="M412 311H35Q35 370 59 403T133 437H556V255Q556 156 412 156V311Z" />
<glyph unicode="&#xad;" glyph-name="uni00AD" horiz-adv-x="489" d="M35 289T58 319T129 350H454Q454 233 360 233H35Q35 289 58 319Z" />
<glyph unicode="&#xae;" glyph-name="registered" horiz-adv-x="816" d="M299 -9T215 36T83 163T35 349Q35 454 82 536T214 663T407 709Q516 709 601 664T733 536T781 349Q781 245 734 164T601 37T407 -9Q299 -9 215 36ZM481 92T539 124T629 215T662 348Q662 424
630 483T539 575T407 608Q333 608 276 575T186 483T154 348Q154 273 186 215T275 125T407 92Q481 92 539 124ZM240 504Q240 526 257 541T300 556H468Q528 556 563 522T599 430Q599 400 584 376T545 345Q594 322 594 266V229Q594 196 566 181T474 166V264Q474 284
466 292T437 301H358V229Q358 194 332 180T240 166V504ZM458 391Q467 391 474 400T481 423Q481 436 475 445T458 454H358V391H458Z" />
<glyph unicode="&#xaf;" glyph-name="overscore" horiz-adv-x="442" d="M35 588T55 614T126 641H407Q407 589 386 563T316 536H35Q35 588 55 614Z" />
<glyph unicode="&#xb0;" glyph-name="degree" horiz-adv-x="429" d="M166 411T125 433T59 493T35 579Q35 626 59 664T124 725T215 747Q264 747 305 725T370 665T394 579Q394 532 370 494T305 433T215 411Q166 411 125 433ZM246 502T268 524T290 579Q290 612 268
634T215 656Q183 656 162 634T140 579Q140 546 161 524T215 502Q246 502 268 524Z" />
<glyph unicode="&#xb1;" glyph-name="plusminus" horiz-adv-x="648" d="M252 369H35Q35 428 59 461T133 495H252V596Q252 649 288 672T396 695V495H613Q613 435 589 402T514 369H396V267Q396 168 252 168V369ZM35 60T59 93T133 127H613Q613 67 589 34T514 1H35Q35
60 59 93Z" />
<glyph unicode="&#xb2;" glyph-name="uni00B2" horiz-adv-x="483" d="M61 400T43 417T25 461Q25 527 81 573T217 644Q266 660 284 677T303 723Q303 747 286 761T240 775Q206 775 189 759T172 715Q172 695 177 674Q161 671 145 671Q98 671 65 693T32 757Q32 789
55 821T125 874T239 896Q306 896 353 872T425 807T449 719Q449 661 407 622T298 561Q245 544 222 533T193 511H357Q411 511 434 484T458 400H92Q61 400 43 417Z" />
<glyph unicode="&#xb3;" glyph-name="uni00B3" horiz-adv-x="475" d="M136 394T76 434T15 541Q15 590 49 606T153 624Q150 609 150 581Q150 547 171 526T235 504Q314 504 314 554Q314 576 302 586T255 597H235Q215 597 202 610T188 650Q188 676 201 689T235 703H256Q300
703 300 741Q300 760 283 771T236 782Q196 782 178 766T159 726Q159 715 161 695Q25 692 25 767Q25 830 86 863T236 896Q329 896 387 856T446 744Q446 718 432 692T383 649Q460 624 460 551Q460 503 429 468T347 413T235 394Q136 394 76 434Z" />
<glyph unicode="&#xb4;" glyph-name="acute" horiz-adv-x="372" d="M142 710Q169 756 242 756H337L173 547Q159 530 142 524T93 517Q70 517 35 520L142 710Z" />
<glyph unicode="&#xb6;" glyph-name="paragraph" horiz-adv-x="676" d="M280 240Q212 240 157 264T68 338T35 459Q35 579 108 639T303 700H621V-30Q621 -84 584 -110T476 -136V574H425V-30Q425 -84 388 -110T280 -136V240Z" />
<glyph unicode="&#xb7;" glyph-name="middot" horiz-adv-x="235" d="M83 212T59 234T35 292Q35 327 59 350T117 373Q151 373 175 350T200 292Q200 257 176 235T117 212Q83 212 59 234Z" />
<glyph unicode="&#xb8;" glyph-name="cedilla" horiz-adv-x="334" d="M110 -244T73 -221T35 -167Q35 -137 56 -123Q71 -145 93 -154T147 -163Q173 -163 186 -154T199 -129Q199 -112 184 -103T144 -94Q120 -94 102 -100Q88 -104 77 -95T66 -72Q66 -63 72 -54L131
36H251L199 -39Q244 -39 271 -65T299 -133Q299 -181 262 -212T161 -244Q110 -244 73 -221Z" />
<glyph unicode="&#xb9;" glyph-name="uni00B9" horiz-adv-x="347" d="M143 768H116Q76 768 51 802T25 890H220Q248 890 267 873T287 831V490Q287 443 251 419T143 394V768Z" />
<glyph unicode="&#xba;" glyph-name="ordmasculine" horiz-adv-x="448" d="M166 297T123 318T58 376T35 453V553Q35 594 57 630T123 687T224 709Q282 709 325 688T390 630T413 553V453Q413 412 391 376T325 319T224 297Q166 297 123 318ZM260 391T282 408T304
455V551Q304 580 282 597T224 615Q188 615 166 598T144 551V455Q144 426 166 409T224 391Q260 391 282 408Z" />
<glyph unicode="&#xbb;" glyph-name="guillemotright" horiz-adv-x="563" d="M145 58T108 58Q87 58 68 69T35 105L199 292L35 479Q40 503 58 515T101 527Q120 527 137 520T166 500L310 335Q328 313 328 292Q328 271 310 249L167 85Q145 58 108 58ZM345 58T308
58Q287 58 268 69T235 105L399 292L235 479Q240 503 258 515T301 527Q320 527 337 520T366 500L510 335Q528 313 528 292Q528 271 510 249L367 85Q345 58 308 58Z" />
<glyph unicode="&#xbc;" glyph-name="onequarter" horiz-adv-x="971" d="M548 691Q559 713 581 725T630 737Q674 737 712 708L365 10Q354 -12 333 -24T284 -36Q239 -36 202 -5L548 691ZM153 577H126Q86 577 61 612T35 699H230Q257 699 277 682T297 640V299Q297
250 259 227T153 203V577ZM712 116H548Q521 116 505 130T488 170Q488 198 502 213L730 472Q748 493 791 493Q819 493 838 476T857 432V225H936Q936 181 930 159T909 126T863 116H857V68Q857 25 823 8T712 -9V116ZM747 217V309L768 339L760 345L648 217H747Z" />
<glyph unicode="&#xbd;" glyph-name="onehalf" horiz-adv-x="1044" d="M548 691Q559 713 581 725T630 737Q674 737 712 708L365 10Q354 -12 333 -24T284 -36Q239 -36 202 -5L548 691ZM153 577H126Q86 577 61 612T35 699H230Q257 699 277 682T297 640V299Q297 250
259 227T153 203V577ZM612 0T594 17T576 61Q576 127 632 173T768 244Q817 260 835 277T854 323Q854 347 837 361T791 375Q757 375 740 359T723 315Q723 295 728 274Q712 271 696 271Q649 271 616 293T583 357Q583 389 606 421T676 474T790 496Q857 496 904 472T976
407T1000 319Q1000 261 958 222T849 161Q796 144 773 133T744 111H908Q962 111 985 84T1009 0H643Q612 0 594 17Z" />
<glyph unicode="&#xbe;" glyph-name="threequarters" horiz-adv-x="1118" d="M695 691Q706 713 728 725T777 737Q821 737 859 708L512 10Q501 -12 480 -24T431 -36Q386 -36 349 -5L695 691ZM156 207T96 247T35 354Q35 403 69 419T173 437Q170 422 170 394Q170
360 191 339T255 317Q334 317 334 367Q334 389 322 399T275 410H255Q235 410 222 423T208 463Q208 489 221 502T255 516H276Q320 516 320 554Q320 573 303 584T256 595Q216 595 198 579T179 539Q179 528 181 508Q45 505 45 580Q45 643 106 676T256 709Q349 709
407 669T466 557Q466 531 452 505T403 462Q480 437 480 364Q480 316 449 281T367 226T255 207Q156 207 96 247ZM859 116H695Q668 116 652 130T635 170Q635 198 649 213L877 472Q895 493 938 493Q966 493 985 476T1004 432V225H1083Q1083 181 1077 159T1056 126T1010
116H1004V68Q1004 25 970 8T859 -9V116ZM894 217V309L915 339L907 345L795 217H894Z" />
<glyph unicode="&#xbf;" glyph-name="questiondown" horiz-adv-x="573" d="M340 509T367 484T394 420Q394 381 367 356T297 330Q254 330 227 355T199 420Q199 459 226 484T297 509Q340 509 367 484ZM364 218Q364 176 340 149T268 88Q225 58 205 36T184 -18Q184
-47 210 -64T283 -82Q335 -82 363 -56T391 15Q391 35 387 55Q403 58 421 58Q469 58 503 35T538 -28Q538 -76 505 -117T413 -184T283 -209Q213 -209 157 -186T68 -122T35 -28Q35 9 52 38T92 88T152 134Q188 159 204 175T221 210V226Q221 298 364 298V218Z" />
<glyph unicode="&#xc0;" glyph-name="Agrave" horiz-adv-x="698" d="M89 -5T62 22T35 90Q35 122 51 157L277 660Q288 685 305 697T349 709Q375 709 392 697T421 660L647 157Q663 122 663 91Q663 49 636 22T560 -9L476 174H221L137 -9Q89 -5 62 22ZM431 300L328
556L314 550L341 483L265 300H431ZM399 748T365 748Q332 748 315 754T283 777L145 940H240Q313 940 340 894L421 750Q399 748 365 748Z" />
<glyph unicode="&#xc1;" glyph-name="Aacute" horiz-adv-x="698" d="M89 -5T62 22T35 90Q35 122 51 157L277 660Q288 685 305 697T349 709Q375 709 392 697T421 660L647 157Q663 122 663 91Q663 49 636 22T560 -9L476 174H221L137 -9Q89 -5 62 22ZM431 300L328
556L314 550L341 483L265 300H431ZM350 903Q355 918 373 928T423 939H518L414 777Q405 763 388 756T332 749Q309 749 296 750L350 903Z" />
<glyph unicode="&#xc2;" glyph-name="Acircumflex" horiz-adv-x="698" d="M89 -5T62 22T35 90Q35 122 51 157L277 660Q288 685 305 697T349 709Q375 709 392 697T421 660L647 157Q663 122 663 91Q663 49 636 22T560 -9L476 174H221L137 -9Q89 -5 62 22ZM431 300L328
556L314 550L341 483L265 300H431ZM272 760T257 754T224 748Q199 748 178 759T147 792L304 955Q324 977 350 977Q376 977 396 955L553 792Q543 771 522 760T476 748Q458 748 443 754T419 771L350 859L281 771Q272 760 257 754Z" />
<glyph unicode="&#xc3;" glyph-name="Atilde" horiz-adv-x="698" d="M89 -5T62 22T35 90Q35 122 51 157L277 660Q288 685 305 697T349 709Q375 709 392 697T421 660L647 157Q663 122 663 91Q663 49 636 22T560 -9L476 174H221L137 -9Q89 -5 62 22ZM431 300L328
556L314 550L341 483L265 300H431ZM197 747T178 770T159 833Q159 875 188 900T261 926Q293 926 316 916T366 886Q385 873 395 868T416 863Q441 863 441 883Q441 898 432 918Q445 926 464 926Q494 926 514 901T535 840Q535 795 508 771T441 747Q416 747 396 757T347
787Q327 802 313 809T284 817Q270 817 262 809T253 787Q253 771 261 755Q248 747 229 747Q197 747 178 770Z" />
<glyph unicode="&#xc4;" glyph-name="Adieresis" horiz-adv-x="698" d="M89 -5T62 22T35 90Q35 122 51 157L277 660Q288 685 305 697T349 709Q375 709 392 697T421 660L647 157Q663 122 663 91Q663 49 636 22T560 -9L476 174H221L137 -9Q89 -5 62 22ZM431 300L328
556L314 550L341 483L265 300H431ZM211 756T190 776T169 829Q169 861 190 882T244 903Q277 903 297 882T318 829Q318 797 298 777T244 756Q211 756 190 776ZM423 756T402 776T381 829Q381 862 402 882T456 903Q488 903 509 882T530 829Q530 797 510 777T456 756Q423
756 402 776Z" />
<glyph unicode="&#xc5;" glyph-name="Aring" horiz-adv-x="698" d="M89 -5T62 22T35 90Q35 122 51 157L277 660Q288 685 305 697T349 709Q375 709 392 697T421 660L647 157Q663 122 663 91Q663 49 636 22T560 -9L476 174H221L137 -9Q89 -5 62 22ZM431 300L328
556L314 550L341 483L265 300H431ZM289 748T250 783T210 873Q210 928 249 963T349 998Q409 998 447 963T486 873Q486 818 448 783T349 748Q289 748 250 783ZM370 827T383 839T397 873Q397 895 384 907T349 920Q328 920 315 908T301 873Q301 852 314 840T349 827Q370
827 383 839Z" />
<glyph unicode="&#xc6;" glyph-name="AE" horiz-adv-x="909" d="M277 650Q287 674 311 687T365 700H854Q854 637 834 606T761 574H520V416H742Q742 353 722 322T649 290H520V126H782Q833 126 853 94T874 0H447Q416 0 395 19T373 67V174H221L137 -9Q88 -5 62 22T35
90Q35 120 51 157L277 650ZM373 300V537L265 300H373Z" />
<glyph unicode="&#xc7;" glyph-name="Ccedilla" horiz-adv-x="686" d="M651 116T584 62T405 -6L382 -39Q427 -39 454 -65T482 -133Q482 -181 445 -212T344 -244Q293 -244 256 -221T218 -167Q218 -137 239 -123Q254 -145 276 -154T330 -163Q356 -163 369 -154T382
-129Q382 -112 367 -103T327 -94Q303 -94 285 -100Q271 -104 260 -95T249 -72Q249 -63 255 -54L287 -5Q212 6 155 43T67 137T35 266V436Q35 516 73 578T181 674T340 709Q429 709 499 683T607 608T646 499Q646 459 620 437T549 414Q523 414 498 421Q501 442 501
472Q501 520 456 550T340 581Q270 581 226 541T182 436V266Q182 201 227 160T346 119Q417 119 461 149T506 227Q506 260 503 275Q530 281 552 281Q597 281 624 258T651 195Q651 116 584 62Z" />
<glyph unicode="&#xc8;" glyph-name="Egrave" horiz-adv-x="631" d="M55 633Q55 661 76 680T129 700H576Q576 634 554 604T483 574H202V416H464Q464 350 442 320T371 290H202V126H504Q552 126 574 96T596 0H129Q98 0 77 19T55 67V633ZM360 748T326 748Q293 748
276 754T244 777L106 940H201Q274 940 301 894L382 750Q360 748 326 748Z" />
<glyph unicode="&#xc9;" glyph-name="Eacute" horiz-adv-x="631" d="M55 633Q55 661 76 680T129 700H576Q576 634 554 604T483 574H202V416H464Q464 350 442 320T371 290H202V126H504Q552 126 574 96T596 0H129Q98 0 77 19T55 67V633ZM311 903Q316 918 334 928T384
939H479L375 777Q366 763 349 756T293 749Q270 749 257 750L311 903Z" />
<glyph unicode="&#xca;" glyph-name="Ecircumflex" horiz-adv-x="631" d="M55 633Q55 661 76 680T129 700H576Q576 634 554 604T483 574H202V416H464Q464 350 442 320T371 290H202V126H504Q552 126 574 96T596 0H129Q98 0 77 19T55 67V633ZM233 760T218 754T185
748Q160 748 139 759T108 792L265 955Q285 977 311 977Q337 977 357 955L514 792Q504 771 483 760T437 748Q419 748 404 754T380 771L311 859L242 771Q233 760 218 754Z" />
<glyph unicode="&#xcb;" glyph-name="Edieresis" horiz-adv-x="631" d="M55 633Q55 661 76 680T129 700H576Q576 634 554 604T483 574H202V416H464Q464 350 442 320T371 290H202V126H504Q552 126 574 96T596 0H129Q98 0 77 19T55 67V633ZM172 756T151 776T130
829Q130 861 151 882T205 903Q238 903 258 882T279 829Q279 797 259 777T205 756Q172 756 151 776ZM384 756T363 776T342 829Q342 862 363 882T417 903Q449 903 470 882T491 829Q491 797 471 777T417 756Q384 756 363 776Z" />
<glyph unicode="&#xcc;" glyph-name="Igrave" horiz-adv-x="297" d="M75 602Q75 652 113 680T222 709V98Q222 47 184 19T75 -9V602ZM199 748T165 748Q132 748 115 754T83 777L-55 940H40Q113 940 140 894L221 750Q199 748 165 748Z" />
<glyph unicode="&#xcd;" glyph-name="Iacute" horiz-adv-x="297" d="M75 602Q75 652 113 680T222 709V98Q222 47 184 19T75 -9V602ZM150 903Q155 918 173 928T223 939H318L214 777Q205 763 188 756T132 749Q109 749 96 750L150 903Z" />
<glyph unicode="&#xce;" glyph-name="Icircumflex" horiz-adv-x="297" d="M75 602Q75 652 113 680T222 709V98Q222 47 184 19T75 -9V602ZM72 760T57 754T24 748Q-1 748 -22 759T-53 792L104 955Q124 977 150 977Q176 977 196 955L353 792Q343 771 322 760T276
748Q258 748 243 754T219 771L150 859L81 771Q72 760 57 754Z" />
<glyph unicode="&#xcf;" glyph-name="Idieresis" horiz-adv-x="297" d="M75 602Q75 652 113 680T222 709V98Q222 47 184 19T75 -9V602ZM11 756T-10 776T-31 829Q-31 861 -10 882T44 903Q77 903 97 882T118 829Q118 797 98 777T44 756Q11 756 -10 776ZM223 756T202
776T181 829Q181 862 202 882T256 903Q288 903 309 882T330 829Q330 797 310 777T256 756Q223 756 202 776Z" />
<glyph unicode="&#xd0;" glyph-name="Eth" horiz-adv-x="764" d="M499 700T568 666T675 568T714 424V278Q714 197 676 134T568 35T409 0H191Q160 0 139 19T117 67V290H35Q35 332 52 357T95 383H117V633Q117 662 138 681T191 700H409Q499 700 568 666ZM567 426Q567
499 525 536T399 574H264V383H423Q423 342 406 316T363 290H264V126H399Q482 126 524 164T567 276V426Z" />
<glyph unicode="&#xd1;" glyph-name="Ntilde" horiz-adv-x="675" d="M55 594Q55 647 91 678T188 709L509 201L520 210L475 285V709Q546 709 583 682T620 603V88Q620 63 605 41T563 5T508 -9L166 532L155 523L200 448V97Q200 45 163 18T55 -9V594ZM189 747T170
770T151 833Q151 875 180 900T253 926Q285 926 308 916T358 886Q377 873 387 868T408 863Q433 863 433 883Q433 898 424 918Q437 926 456 926Q486 926 506 901T527 840Q527 795 500 771T433 747Q408 747 388 757T339 787Q319 802 305 809T276 817Q262 817 254 809T245
787Q245 771 253 755Q240 747 221 747Q189 747 170 770Z" />
<glyph unicode="&#xd2;" glyph-name="Ograve" horiz-adv-x="672" d="M254 -9T185 23T76 111T35 231V469Q35 533 75 588T185 676T336 709Q418 709 487 677T596 589T637 469V231Q637 167 597 112T487 24T336 -9Q254 -9 185 23ZM404 119T447 151T490 234V466Q490
517 447 549T336 581Q268 581 225 549T182 466V234Q182 183 225 151T336 119Q404 119 447 151ZM386 748T352 748Q319 748 302 754T270 777L132 940H227Q300 940 327 894L408 750Q386 748 352 748Z" />
<glyph unicode="&#xd3;" glyph-name="Oacute" horiz-adv-x="672" d="M254 -9T185 23T76 111T35 231V469Q35 533 75 588T185 676T336 709Q418 709 487 677T596 589T637 469V231Q637 167 597 112T487 24T336 -9Q254 -9 185 23ZM404 119T447 151T490 234V466Q490
517 447 549T336 581Q268 581 225 549T182 466V234Q182 183 225 151T336 119Q404 119 447 151ZM337 903Q342 918 360 928T410 939H505L401 777Q392 763 375 756T319 749Q296 749 283 750L337 903Z" />
<glyph unicode="&#xd4;" glyph-name="Ocircumflex" horiz-adv-x="672" d="M254 -9T185 23T76 111T35 231V469Q35 533 75 588T185 676T336 709Q418 709 487 677T596 589T637 469V231Q637 167 597 112T487 24T336 -9Q254 -9 185 23ZM404 119T447 151T490 234V466Q490
517 447 549T336 581Q268 581 225 549T182 466V234Q182 183 225 151T336 119Q404 119 447 151ZM259 760T244 754T211 748Q186 748 165 759T134 792L291 955Q311 977 337 977Q363 977 383 955L540 792Q530 771 509 760T463 748Q445 748 430 754T406 771L337 859L268
771Q259 760 244 754Z" />
<glyph unicode="&#xd5;" glyph-name="Otilde" horiz-adv-x="672" d="M254 -9T185 23T76 111T35 231V469Q35 533 75 588T185 676T336 709Q418 709 487 677T596 589T637 469V231Q637 167 597 112T487 24T336 -9Q254 -9 185 23ZM404 119T447 151T490 234V466Q490
517 447 549T336 581Q268 581 225 549T182 466V234Q182 183 225 151T336 119Q404 119 447 151ZM184 747T165 770T146 833Q146 875 175 900T248 926Q280 926 303 916T353 886Q372 873 382 868T403 863Q428 863 428 883Q428 898 419 918Q432 926 451 926Q481 926
501 901T522 840Q522 795 495 771T428 747Q403 747 383 757T334 787Q314 802 300 809T271 817Q257 817 249 809T240 787Q240 771 248 755Q235 747 216 747Q184 747 165 770Z" />
<glyph unicode="&#xd6;" glyph-name="Odieresis" horiz-adv-x="672" d="M254 -9T185 23T76 111T35 231V469Q35 533 75 588T185 676T336 709Q418 709 487 677T596 589T637 469V231Q637 167 597 112T487 24T336 -9Q254 -9 185 23ZM404 119T447 151T490 234V466Q490
517 447 549T336 581Q268 581 225 549T182 466V234Q182 183 225 151T336 119Q404 119 447 151ZM198 756T177 776T156 829Q156 861 177 882T231 903Q264 903 284 882T305 829Q305 797 285 777T231 756Q198 756 177 776ZM410 756T389 776T368 829Q368 862 389 882T443
903Q475 903 496 882T517 829Q517 797 497 777T443 756Q410 756 389 776Z" />
<glyph unicode="&#xd7;" glyph-name="multiply" horiz-adv-x="610" d="M214 292L35 468Q49 496 74 511T126 526Q164 526 191 499L305 383L419 499Q446 526 484 526Q511 526 536 511T575 468L397 292L575 115Q560 86 536 71T485 56Q447 56 418 85L305 200L199 92Q166
58 123 58Q96 58 73 72T35 115L214 292Z" />
<glyph unicode="&#xd8;" glyph-name="Oslash" horiz-adv-x="672" d="M585 612T611 567T637 469V231Q637 167 597 112T487 24T336 -9Q275 -9 218 10L198 -29Q190 -44 168 -52T120 -61Q93 -61 78 -52L132 55Q86 89 61 134T35 231V469Q35 533 75 588T185 676T336
709Q395 709 452 690L475 736Q482 751 505 759T555 768Q580 768 596 760L538 646Q585 612 611 567ZM182 207T196 182L393 574Q369 581 336 581Q268 581 225 549T182 466V234Q182 207 196 182ZM490 466Q490 496 475 520L276 127Q305 119 336 119Q404 119 447 151T490
234V466Z" />
<glyph unicode="&#xd9;" glyph-name="Ugrave" horiz-adv-x="700" d="M264 -9T196 25T89 122T50 261V603Q50 655 87 682T197 709V261Q197 196 238 158T350 119Q420 119 461 157T503 261V603Q503 655 540 682T650 709V261Q650 184 612 122T505 26T350 -9Q264 -9
196 25ZM410 748T376 748Q343 748 326 754T294 777L156 940H251Q324 940 351 894L432 750Q410 748 376 748Z" />
<glyph unicode="&#xda;" glyph-name="Uacute" horiz-adv-x="700" d="M264 -9T196 25T89 122T50 261V603Q50 655 87 682T197 709V261Q197 196 238 158T350 119Q420 119 461 157T503 261V603Q503 655 540 682T650 709V261Q650 184 612 122T505 26T350 -9Q264 -9
196 25ZM361 903Q366 918 384 928T434 939H529L425 777Q416 763 399 756T343 749Q320 749 307 750L361 903Z" />
<glyph unicode="&#xdb;" glyph-name="Ucircumflex" horiz-adv-x="700" d="M264 -9T196 25T89 122T50 261V603Q50 655 87 682T197 709V261Q197 196 238 158T350 119Q420 119 461 157T503 261V603Q503 655 540 682T650 709V261Q650 184 612 122T505 26T350 -9Q264
-9 196 25ZM283 760T268 754T235 748Q210 748 189 759T158 792L315 955Q335 977 361 977Q387 977 407 955L564 792Q554 771 533 760T487 748Q469 748 454 754T430 771L361 859L292 771Q283 760 268 754Z" />
<glyph unicode="&#xdc;" glyph-name="Udieresis" horiz-adv-x="700" d="M264 -9T196 25T89 122T50 261V603Q50 655 87 682T197 709V261Q197 196 238 158T350 119Q420 119 461 157T503 261V603Q503 655 540 682T650 709V261Q650 184 612 122T505 26T350 -9Q264
-9 196 25ZM222 756T201 776T180 829Q180 861 201 882T255 903Q288 903 308 882T329 829Q329 797 309 777T255 756Q222 756 201 776ZM434 756T413 776T392 829Q392 862 413 882T467 903Q499 903 520 882T541 829Q541 797 521 777T467 756Q434 756 413 776Z" />
<glyph unicode="&#xdd;" glyph-name="Yacute" horiz-adv-x="711" d="M282 250L35 694Q45 700 66 704T106 709Q146 709 173 693T220 640L353 392L323 330L335 325L491 640Q525 709 605 709Q623 709 644 705T676 694L429 249V97Q429 45 392 18T282 -9V250ZM359 903Q364
918 382 928T432 939H527L423 777Q414 763 397 756T341 749Q318 749 305 750L359 903Z" />
<glyph unicode="&#xde;" glyph-name="Thorn" horiz-adv-x="678" d="M55 700Q127 700 164 673T202 594V569H392Q467 569 524 542T612 464T643 346Q643 278 613 228T525 150T392 122H202V97Q202 45 165 18T55 -9V700ZM392 249Q496 249 496 347Q496 394 470 418T392
442H202V249H392Z" />
<glyph unicode="&#xdf;" glyph-name="germandbls" horiz-adv-x="625" d="M50 464Q50 578 117 643T302 709Q419 709 486 657T553 512Q553 458 525 419T442 362Q519 345 554 306T590 197Q590 136 564 90T491 17T383 -9Q318 -9 274 20T230 92Q230 118 247 143Q291
113 356 113Q396 113 418 136T441 202Q441 238 426 258T377 289T279 302V398Q340 398 371 426T403 506Q403 542 376 563T302 585Q248 585 220 554T192 464V-39Q192 -87 156 -111T50 -136V464Z" />
<glyph unicode="&#xe0;" glyph-name="agrave" horiz-adv-x="544" d="M172 -9T130 10T61 67T35 158Q35 211 63 249T137 308T239 328Q285 328 320 314T387 273L392 279Q371 298 359 306V319Q359 357 332 379T254 402Q210 402 176 386T121 339Q97 345 81 361T64 398Q64
429 91 454T164 494T267 509Q376 509 435 459T494 323V80Q494 33 464 12T367 -9V30Q382 44 391 55L386 60Q353 26 317 9T221 -9Q172 -9 130 10ZM307 89T334 107T361 159Q361 192 334 211T259 230Q217 230 193 211T168 159Q168 125 192 107T259 89Q307 89 334 107ZM319
548T285 548Q252 548 235 554T203 577L65 740H160Q233 740 260 694L341 550Q319 548 285 548Z" />
<glyph unicode="&#xe1;" glyph-name="aacute" horiz-adv-x="544" d="M172 -9T130 10T61 67T35 158Q35 211 63 249T137 308T239 328Q285 328 320 314T387 273L392 279Q371 298 359 306V319Q359 357 332 379T254 402Q210 402 176 386T121 339Q97 345 81 361T64 398Q64
429 91 454T164 494T267 509Q376 509 435 459T494 323V80Q494 33 464 12T367 -9V30Q382 44 391 55L386 60Q353 26 317 9T221 -9Q172 -9 130 10ZM307 89T334 107T361 159Q361 192 334 211T259 230Q217 230 193 211T168 159Q168 125 192 107T259 89Q307 89 334 107ZM270
703Q275 718 293 728T343 739H438L334 577Q325 563 308 556T252 549Q229 549 216 550L270 703Z" />
<glyph unicode="&#xe2;" glyph-name="acircumflex" horiz-adv-x="544" d="M172 -9T130 10T61 67T35 158Q35 211 63 249T137 308T239 328Q285 328 320 314T387 273L392 279Q371 298 359 306V319Q359 357 332 379T254 402Q210 402 176 386T121 339Q97 345 81 361T64
398Q64 429 91 454T164 494T267 509Q376 509 435 459T494 323V80Q494 33 464 12T367 -9V30Q382 44 391 55L386 60Q353 26 317 9T221 -9Q172 -9 130 10ZM307 89T334 107T361 159Q361 192 334 211T259 230Q217 230 193 211T168 159Q168 125 192 107T259 89Q307 89
334 107ZM192 560T177 554T144 548Q119 548 98 559T67 592L224 755Q244 777 270 777Q296 777 316 755L473 592Q463 571 442 560T396 548Q378 548 363 554T339 571L270 659L201 571Q192 560 177 554Z" />
<glyph unicode="&#xe3;" glyph-name="atilde" horiz-adv-x="544" d="M172 -9T130 10T61 67T35 158Q35 211 63 249T137 308T239 328Q285 328 320 314T387 273L392 279Q371 298 359 306V319Q359 357 332 379T254 402Q210 402 176 386T121 339Q97 345 81 361T64 398Q64
429 91 454T164 494T267 509Q376 509 435 459T494 323V80Q494 33 464 12T367 -9V30Q382 44 391 55L386 60Q353 26 317 9T221 -9Q172 -9 130 10ZM307 89T334 107T361 159Q361 192 334 211T259 230Q217 230 193 211T168 159Q168 125 192 107T259 89Q307 89 334 107ZM117
547T98 570T79 633Q79 675 108 700T181 726Q213 726 236 716T286 686Q305 673 315 668T336 663Q361 663 361 683Q361 698 352 718Q365 726 384 726Q414 726 434 701T455 640Q455 595 428 571T361 547Q336 547 316 557T267 587Q247 602 233 609T204 617Q190 617
182 609T173 587Q173 571 181 555Q168 547 149 547Q117 547 98 570Z" />
<glyph unicode="&#xe4;" glyph-name="adieresis" horiz-adv-x="544" d="M172 -9T130 10T61 67T35 158Q35 211 63 249T137 308T239 328Q285 328 320 314T387 273L392 279Q371 298 359 306V319Q359 357 332 379T254 402Q210 402 176 386T121 339Q97 345 81 361T64
398Q64 429 91 454T164 494T267 509Q376 509 435 459T494 323V80Q494 33 464 12T367 -9V30Q382 44 391 55L386 60Q353 26 317 9T221 -9Q172 -9 130 10ZM307 89T334 107T361 159Q361 192 334 211T259 230Q217 230 193 211T168 159Q168 125 192 107T259 89Q307 89
334 107ZM131 556T110 576T89 629Q89 661 110 682T164 703Q197 703 217 682T238 629Q238 597 218 577T164 556Q131 556 110 576ZM343 556T322 576T301 629Q301 662 322 682T376 703Q408 703 429 682T450 629Q450 597 430 577T376 556Q343 556 322 576Z" />
<glyph unicode="&#xe5;" glyph-name="aring" horiz-adv-x="544" d="M172 -9T130 10T61 67T35 158Q35 211 63 249T137 308T239 328Q285 328 320 314T387 273L392 279Q371 298 359 306V319Q359 357 332 379T254 402Q210 402 176 386T121 339Q97 345 81 361T64 398Q64
429 91 454T164 494T267 509Q376 509 435 459T494 323V80Q494 33 464 12T367 -9V30Q382 44 391 55L386 60Q353 26 317 9T221 -9Q172 -9 130 10ZM307 89T334 107T361 159Q361 192 334 211T259 230Q217 230 193 211T168 159Q168 125 192 107T259 89Q307 89 334 107ZM209
548T170 583T130 673Q130 728 169 763T269 798Q329 798 367 763T406 673Q406 618 368 583T269 548Q209 548 170 583ZM290 627T303 639T317 673Q317 695 304 707T269 720Q248 720 235 708T221 673Q221 652 234 640T269 627Q290 627 303 639Z" />
<glyph unicode="&#xe6;" glyph-name="ae" horiz-adv-x="845" d="M176 -9T131 12T60 71T35 158Q35 207 61 246T133 306T239 328Q283 328 318 315T387 273L392 279Q373 296 359 306V319Q359 357 331 379T254 402Q210 402 176 386T121 339Q96 346 80 362T64 398Q64
429 91 454T164 494T267 509Q321 509 364 491T434 438Q461 470 504 489T591 509Q653 509 703 484T781 414T810 315V261Q810 236 792 220T746 204H494V190Q494 147 519 123T591 99Q635 99 658 118T682 171Q702 173 711 173Q753 173 775 156T797 106Q797 76 769 50T695
7T597 -9Q544 -9 498 12T433 67Q406 33 352 12T234 -9Q176 -9 131 12ZM686 301V315Q686 354 660 378T590 402Q547 402 521 378T494 315V301H686ZM308 89T334 107T361 159Q361 192 334 211T259 230Q217 230 193 211T168 159Q168 125 191 107T259 89Q308 89 334 107Z"
/>
<glyph unicode="&#xe7;" glyph-name="ccedilla" horiz-adv-x="520" d="M485 79T446 44T339 -4L314 -39Q359 -39 386 -65T414 -133Q414 -181 377 -212T276 -244Q225 -244 188 -221T150 -167Q150 -137 171 -123Q186 -145 208 -154T262 -163Q288 -163 301 -154T314
-129Q314 -112 299 -103T259 -94Q235 -94 217 -100Q203 -104 192 -95T181 -72Q181 -63 187 -54L220 -4Q142 10 96 59T50 178V311Q50 369 78 414T158 484T274 509Q335 509 382 492T455 443T482 372Q482 339 456 319T387 299Q374 299 368 300Q368 340 343 365T278
391Q238 391 213 367T187 304V188Q187 153 212 131T279 109Q319 109 344 134T370 199Q377 200 390 200Q433 200 459 181T485 128Q485 79 446 44Z" />
<glyph unicode="&#xe8;" glyph-name="egrave" horiz-adv-x="534" d="M217 -9T165 16T81 84T50 180V308Q50 364 81 410T166 483T280 509Q340 509 390 485T470 416T499 315V261Q499 237 481 221T435 204H183V190Q183 150 207 125T280 99Q327 99 349 119T371 171Q391
173 401 173Q442 173 464 156T486 106Q486 79 459 52T385 8T279 -9Q217 -9 165 16ZM375 301V315Q375 355 349 378T279 402Q236 402 210 379T183 315V301H375ZM329 548T295 548Q262 548 245 554T213 577L75 740H170Q243 740 270 694L351 550Q329 548 295 548Z" />
<glyph unicode="&#xe9;" glyph-name="eacute" horiz-adv-x="534" d="M217 -9T165 16T81 84T50 180V308Q50 364 81 410T166 483T280 509Q340 509 390 485T470 416T499 315V261Q499 237 481 221T435 204H183V190Q183 150 207 125T280 99Q327 99 349 119T371 171Q391
173 401 173Q442 173 464 156T486 106Q486 79 459 52T385 8T279 -9Q217 -9 165 16ZM375 301V315Q375 355 349 378T279 402Q236 402 210 379T183 315V301H375ZM280 703Q285 718 303 728T353 739H448L344 577Q335 563 318 556T262 549Q239 549 226 550L280 703Z"
/>
<glyph unicode="&#xea;" glyph-name="ecircumflex" horiz-adv-x="534" d="M217 -9T165 16T81 84T50 180V308Q50 364 81 410T166 483T280 509Q340 509 390 485T470 416T499 315V261Q499 237 481 221T435 204H183V190Q183 150 207 125T280 99Q327 99 349 119T371
171Q391 173 401 173Q442 173 464 156T486 106Q486 79 459 52T385 8T279 -9Q217 -9 165 16ZM375 301V315Q375 355 349 378T279 402Q236 402 210 379T183 315V301H375ZM202 560T187 554T154 548Q129 548 108 559T77 592L234 755Q254 777 280 777Q306 777 326 755L483
592Q473 571 452 560T406 548Q388 548 373 554T349 571L280 659L211 571Q202 560 187 554Z" />
<glyph unicode="&#xeb;" glyph-name="edieresis" horiz-adv-x="534" d="M217 -9T165 16T81 84T50 180V308Q50 364 81 410T166 483T280 509Q340 509 390 485T470 416T499 315V261Q499 237 481 221T435 204H183V190Q183 150 207 125T280 99Q327 99 349 119T371 171Q391
173 401 173Q442 173 464 156T486 106Q486 79 459 52T385 8T279 -9Q217 -9 165 16ZM375 301V315Q375 355 349 378T279 402Q236 402 210 379T183 315V301H375ZM141 556T120 576T99 629Q99 661 120 682T174 703Q207 703 227 682T248 629Q248 597 228 577T174 556Q141
556 120 576ZM353 556T332 576T311 629Q311 662 332 682T386 703Q418 703 439 682T460 629Q460 597 440 577T386 556Q353 556 332 576Z" />
<glyph unicode="&#xec;" glyph-name="igrave" horiz-adv-x="247" d="M55 429Q55 472 89 490T192 509V71Q192 28 158 10T55 -9V429ZM177 557T143 557Q110 557 93 563T61 586L-77 749H18Q91 749 118 703L199 559Q177 557 143 557Z" />
<glyph unicode="&#xed;" glyph-name="iacute" horiz-adv-x="247" d="M55 429Q55 472 89 490T192 509V71Q192 28 158 10T55 -9V429ZM128 712Q133 727 151 737T201 748H296L192 586Q183 572 166 565T110 558Q87 558 74 559L128 712Z" />
<glyph unicode="&#xee;" glyph-name="icircumflex" horiz-adv-x="247" d="M55 429Q55 472 89 490T192 509V71Q192 28 158 10T55 -9V429ZM50 569T35 563T2 557Q-23 557 -44 568T-75 601L82 764Q102 786 128 786Q154 786 174 764L331 601Q321 580 300 569T254 557Q236
557 221 563T197 580L128 668L59 580Q50 569 35 563Z" />
<glyph unicode="&#xef;" glyph-name="idieresis" horiz-adv-x="247" d="M55 429Q55 472 89 490T192 509V71Q192 28 158 10T55 -9V429ZM-11 565T-32 585T-53 638Q-53 670 -32 691T22 712Q55 712 75 691T96 638Q96 606 76 586T22 565Q-11 565 -32 585ZM201 565T180
585T159 638Q159 671 180 691T234 712Q266 712 287 691T308 638Q308 606 288 586T234 565Q201 565 180 585Z" />
<glyph unicode="&#xf0;" glyph-name="eth" horiz-adv-x="656" d="M242 -9T176 26T73 122T35 261Q35 341 69 399T160 487T288 517Q341 517 390 493T475 425L483 432Q480 436 470 451T447 476Q427 516 398 543T321 588L200 532Q194 546 194 557Q194 584 223 598L253
612Q215 621 190 624Q165 627 150 649T134 697Q134 713 140 727T159 751Q230 744 285 726T395 678L503 728Q510 712 510 702Q510 676 480 662L447 647Q542 586 581 500T621 281Q621 198 583 132T478 29T324 -9Q242 -9 176 26ZM392 114T434 158T476 270Q476 334
435 374T328 415Q261 415 219 373T176 258Q176 220 195 187T248 134T322 114Q392 114 434 158Z" />
<glyph unicode="&#xf1;" glyph-name="ntilde" horiz-adv-x="569" d="M55 405Q55 455 88 482T186 509V450Q171 434 161 416L168 412Q198 458 244 483T348 509Q398 509 436 486T497 423T519 332V71Q519 28 485 10T382 -9V311Q382 345 361 368T300 391Q252 391 222
360T192 282V71Q192 28 159 10T55 -9V405ZM134 547T115 570T96 633Q96 675 125 700T198 726Q230 726 253 716T303 686Q322 673 332 668T353 663Q378 663 378 683Q378 698 369 718Q382 726 401 726Q431 726 451 701T472 640Q472 595 445 571T378 547Q353 547 333
557T284 587Q264 602 250 609T221 617Q207 617 199 609T190 587Q190 571 198 555Q185 547 166 547Q134 547 115 570Z" />
<glyph unicode="&#xf2;" glyph-name="ograve" horiz-adv-x="542" d="M205 -9T151 15T66 81T35 178V311Q35 366 65 411T149 483T271 509Q339 509 393 483T477 412T507 311V178Q507 124 476 82T391 15T271 -9Q205 -9 151 15ZM318 109T344 130T370 188V304Q370 343
344 367T271 391Q225 391 199 367T172 304V188Q172 151 198 130T271 109Q318 109 344 130ZM321 548T287 548Q254 548 237 554T205 577L67 740H162Q235 740 262 694L343 550Q321 548 287 548Z" />
<glyph unicode="&#xf3;" glyph-name="oacute" horiz-adv-x="542" d="M205 -9T151 15T66 81T35 178V311Q35 366 65 411T149 483T271 509Q339 509 393 483T477 412T507 311V178Q507 124 476 82T391 15T271 -9Q205 -9 151 15ZM318 109T344 130T370 188V304Q370 343
344 367T271 391Q225 391 199 367T172 304V188Q172 151 198 130T271 109Q318 109 344 130ZM272 703Q277 718 295 728T345 739H440L336 577Q327 563 310 556T254 549Q231 549 218 550L272 703Z" />
<glyph unicode="&#xf4;" glyph-name="ocircumflex" horiz-adv-x="542" d="M205 -9T151 15T66 81T35 178V311Q35 366 65 411T149 483T271 509Q339 509 393 483T477 412T507 311V178Q507 124 476 82T391 15T271 -9Q205 -9 151 15ZM318 109T344 130T370 188V304Q370
343 344 367T271 391Q225 391 199 367T172 304V188Q172 151 198 130T271 109Q318 109 344 130ZM194 560T179 554T146 548Q121 548 100 559T69 592L226 755Q246 777 272 777Q298 777 318 755L475 592Q465 571 444 560T398 548Q380 548 365 554T341 571L272 659L203
571Q194 560 179 554Z" />
<glyph unicode="&#xf5;" glyph-name="otilde" horiz-adv-x="542" d="M205 -9T151 15T66 81T35 178V311Q35 366 65 411T149 483T271 509Q339 509 393 483T477 412T507 311V178Q507 124 476 82T391 15T271 -9Q205 -9 151 15ZM318 109T344 130T370 188V304Q370 343
344 367T271 391Q225 391 199 367T172 304V188Q172 151 198 130T271 109Q318 109 344 130ZM119 547T100 570T81 633Q81 675 110 700T183 726Q215 726 238 716T288 686Q307 673 317 668T338 663Q363 663 363 683Q363 698 354 718Q367 726 386 726Q416 726 436 701T457
640Q457 595 430 571T363 547Q338 547 318 557T269 587Q249 602 235 609T206 617Q192 617 184 609T175 587Q175 571 183 555Q170 547 151 547Q119 547 100 570Z" />
<glyph unicode="&#xf6;" glyph-name="odieresis" horiz-adv-x="542" d="M205 -9T151 15T66 81T35 178V311Q35 366 65 411T149 483T271 509Q339 509 393 483T477 412T507 311V178Q507 124 476 82T391 15T271 -9Q205 -9 151 15ZM318 109T344 130T370 188V304Q370
343 344 367T271 391Q225 391 199 367T172 304V188Q172 151 198 130T271 109Q318 109 344 130ZM133 556T112 576T91 629Q91 661 112 682T166 703Q199 703 219 682T240 629Q240 597 220 577T166 556Q133 556 112 576ZM345 556T324 576T303 629Q303 662 324 682T378
703Q410 703 431 682T452 629Q452 597 432 577T378 556Q345 556 324 576Z" />
<glyph unicode="&#xf7;" glyph-name="divide" horiz-adv-x="648" d="M288 395T262 420T235 481Q235 517 261 542T325 567Q362 567 388 542T414 481Q414 446 388 421T325 395Q288 395 262 420ZM35 288T59 321T133 355H613Q613 295 589 262T514 229H35Q35 288 59
321ZM288 17T262 42T235 102Q235 137 261 163T325 189Q362 189 388 163T414 102Q414 67 388 42T325 17Q288 17 262 42Z" />
<glyph unicode="&#xf8;" glyph-name="oslash" horiz-adv-x="542" d="M468 432T487 394T507 311V178Q507 124 476 82T391 15T271 -9Q235 -9 200 -1L186 -29Q178 -44 156 -52T108 -61Q81 -61 66 -52L111 37Q75 63 55 99T35 178V311Q35 366 65 411T149 483T271 509Q310
509 344 500L361 534Q368 549 391 557T441 566Q466 566 482 558L432 459Q468 432 487 394ZM172 176T175 165L289 390Q283 391 271 391Q225 391 199 367T172 304V188Q172 176 175 165ZM370 304Q370 319 367 329L256 110Q261 109 271 109Q318 109 344 130T370 188V304Z"
/>
<glyph unicode="&#xf9;" glyph-name="ugrave" horiz-adv-x="563" d="M508 95Q508 45 475 18T377 -9V50Q392 66 402 84L395 88Q332 -9 225 -9Q175 -9 134 14T70 80T46 177V429Q46 472 79 490T183 509V187Q183 151 205 130T269 109Q317 109 344 139T371 218V429Q371
472 404 490T508 509V95ZM336 548T302 548Q269 548 252 554T220 577L82 740H177Q250 740 277 694L358 550Q336 548 302 548Z" />
<glyph unicode="&#xfa;" glyph-name="uacute" horiz-adv-x="563" d="M508 95Q508 45 475 18T377 -9V50Q392 66 402 84L395 88Q332 -9 225 -9Q175 -9 134 14T70 80T46 177V429Q46 472 79 490T183 509V187Q183 151 205 130T269 109Q317 109 344 139T371 218V429Q371
472 404 490T508 509V95ZM287 703Q292 718 310 728T360 739H455L351 577Q342 563 325 556T269 549Q246 549 233 550L287 703Z" />
<glyph unicode="&#xfb;" glyph-name="ucircumflex" horiz-adv-x="563" d="M508 95Q508 45 475 18T377 -9V50Q392 66 402 84L395 88Q332 -9 225 -9Q175 -9 134 14T70 80T46 177V429Q46 472 79 490T183 509V187Q183 151 205 130T269 109Q317 109 344 139T371 218V429Q371
472 404 490T508 509V95ZM209 560T194 554T161 548Q136 548 115 559T84 592L241 755Q261 777 287 777Q313 777 333 755L490 592Q480 571 459 560T413 548Q395 548 380 554T356 571L287 659L218 571Q209 560 194 554Z" />
<glyph unicode="&#xfc;" glyph-name="udieresis" horiz-adv-x="563" d="M508 95Q508 45 475 18T377 -9V50Q392 66 402 84L395 88Q332 -9 225 -9Q175 -9 134 14T70 80T46 177V429Q46 472 79 490T183 509V187Q183 151 205 130T269 109Q317 109 344 139T371 218V429Q371
472 404 490T508 509V95ZM148 556T127 576T106 629Q106 661 127 682T181 703Q214 703 234 682T255 629Q255 597 235 577T181 556Q148 556 127 576ZM360 556T339 576T318 629Q318 662 339 682T393 703Q425 703 446 682T467 629Q467 597 447 577T393 556Q360 556
339 576Z" />
<glyph unicode="&#xfd;" glyph-name="yacute" horiz-adv-x="586" d="M103 -209T79 -180T55 -93Q84 -99 108 -99Q133 -99 149 -92T179 -64T212 -4L227 30L35 498Q42 503 61 506T94 509Q125 509 151 496T187 459L285 198L268 149L277 146L399 459Q409 484 434 496T492
509Q505 509 524 506T551 498L328 -44Q293 -129 251 -169T145 -209Q103 -209 79 -180ZM297 703Q302 718 320 728T370 739H465L361 577Q352 563 335 556T279 549Q256 549 243 550L297 703Z" />
<glyph unicode="&#xfe;" glyph-name="thorn" horiz-adv-x="538" d="M55 618Q55 659 89 684T181 709V455Q169 440 162 428L167 424Q200 469 239 489T333 509Q387 509 429 486T495 422T519 327V173Q519 120 493 79T421 14T315 -9Q279 -9 240 6T176 44L172 39Q179
30 194 19V-119Q194 -209 55 -209V618ZM333 109T357 128T382 182V317Q382 353 358 372T287 391Q246 391 219 372T192 322V178Q192 148 219 129T287 109Q333 109 357 128Z" />
<glyph unicode="&#xff;" glyph-name="ydieresis" horiz-adv-x="586" d="M103 -209T79 -180T55 -93Q84 -99 108 -99Q133 -99 149 -92T179 -64T212 -4L227 30L35 498Q42 503 61 506T94 509Q125 509 151 496T187 459L285 198L268 149L277 146L399 459Q409 484 434
496T492 509Q505 509 524 506T551 498L328 -44Q293 -129 251 -169T145 -209Q103 -209 79 -180ZM158 556T137 576T116 629Q116 661 137 682T191 703Q224 703 244 682T265 629Q265 597 245 577T191 556Q158 556 137 576ZM370 556T349 576T328 629Q328 662 349 682T403
703Q435 703 456 682T477 629Q477 597 457 577T403 556Q370 556 349 576Z" />
<glyph unicode="&#x2013;" glyph-name="endash" horiz-adv-x="635" d="M35 289T58 319T129 350H600Q600 233 506 233H35Q35 289 58 319Z" />
<glyph unicode="&#x2014;" glyph-name="emdash" horiz-adv-x="765" d="M35 289T58 319T129 350H730Q730 233 636 233H35Q35 289 58 319Z" />
<glyph unicode="&#x2018;" glyph-name="quoteleft" horiz-adv-x="264" d="M88 381T62 409T35 477Q35 542 61 601T130 696Q146 709 169 709Q189 709 199 700Q162 666 142 624T121 556Q130 562 148 562Q182 562 205 538T229 474Q229 433 202 407T133 381Q88 381 62 409Z" />
<glyph unicode="&#x2019;" glyph-name="quoteright" horiz-adv-x="264" d="M102 424T122 466T143 534Q134 528 116 528Q82 528 59 552T35 616Q35 657 62 683T131 709Q176 709 202 681T229 613Q229 548 203 489T134 394Q118 381 95 381Q76 381 65 390Q102 424 122 466Z" />
<glyph unicode="&#x201a;" glyph-name="quotesinglbase" horiz-adv-x="264" d="M102 -113T122 -71T143 -3Q134 -9 116 -9Q82 -9 59 15T35 79Q35 120 62 146T131 172Q176 172 202 144T229 76Q229 11 203 -48T134 -143Q118 -156 95 -156Q76 -156 65 -147Q102 -113 122 -71Z" />
<glyph unicode="&#x201c;" glyph-name="quotedblleft" horiz-adv-x="482" d="M162 666T142 624T121 556Q130 562 148 562Q182 562 205 538T229 474Q229 433 202 407T133 381Q88 381 62 409T35 477Q35 542 61 601T130 696Q146 709 169 709Q189 709 199 700Q162
666 142 624ZM380 666T360 624T339 556Q348 562 366 562Q400 562 423 538T447 474Q447 433 420 407T351 381Q306 381 280 409T253 477Q253 542 279 601T348 696Q364 709 387 709Q406 709 417 700Q380 666 360 624Z" />
<glyph unicode="&#x201d;" glyph-name="quotedblright" horiz-adv-x="482" d="M102 424T122 466T143 534Q134 528 116 528Q82 528 59 552T35 616Q35 657 62 683T131 709Q176 709 202 681T229 613Q229 548 203 489T134 394Q118 381 95 381Q76 381 65 390Q102 424
122 466ZM320 424T340 466T361 534Q352 528 334 528Q300 528 277 552T253 616Q253 657 280 683T349 709Q394 709 420 681T447 613Q447 548 421 489T352 394Q336 381 313 381Q294 381 283 390Q320 424 340 466Z" />
<glyph unicode="&#x201e;" glyph-name="quotedblbase" horiz-adv-x="482" d="M102 -113T122 -71T143 -3Q134 -9 116 -9Q82 -9 59 15T35 79Q35 120 62 146T131 172Q176 172 202 144T229 76Q229 11 203 -48T134 -143Q118 -156 95 -156Q76 -156 65 -147Q102 -113
122 -71ZM320 -113T340 -71T361 -3Q352 -9 334 -9Q300 -9 277 15T253 79Q253 120 280 146T349 172Q394 172 420 144T447 76Q447 11 421 -48T352 -143Q336 -156 313 -156Q294 -156 283 -147Q320 -113 340 -71Z" />
<glyph unicode="&#x2022;" glyph-name="bullet" horiz-adv-x="358" d="M140 153T107 171T55 222T35 292Q35 330 54 362T107 412T179 431Q218 431 251 413T303 362T323 292Q323 254 304 222T251 172T179 153Q140 153 107 171Z" />
<glyph unicode="&#x2039;" glyph-name="guilsinglleft" horiz-adv-x="372" d="M53 249Q35 271 35 292Q35 313 53 335L197 500Q209 513 227 520T266 527Q292 527 312 515T337 479L173 292L337 105Q324 81 303 70T259 58Q240 58 224 65T196 85L53 249Z" />
<glyph unicode="&#x203a;" glyph-name="guilsinglright" horiz-adv-x="372" d="M165 72T149 65T113 58Q90 58 69 69T35 105L199 292L35 479Q40 502 60 514T106 527Q127 527 145 520T175 500L319 335Q337 313 337 292Q337 271 319 249L176 85Q165 72 149 65Z" />
</font>
</defs>
</svg>
