<?xml version="1.0" encoding="utf-8"?>
<!-- Generator: Adobe Illustrator 18.0.0, SVG Export Plug-In . SVG Version: 6.00 Build 0)  -->
<!DOCTYPE svg PUBLIC "-//W3C//DTD SVG 1.1//EN" "http://www.w3.org/Graphics/SVG/1.1/DTD/svg11.dtd">
<svg version="1.1" id="Layer_1" xmlns="http://www.w3.org/2000/svg" xmlns:xlink="http://www.w3.org/1999/xlink" x="0px" y="0px"
	 viewBox="0 0 45 45" enable-background="new 0 0 45 45" xml:space="preserve">
<g>
	<path fill="#003462" d="M22.5,2.6c11,0,19.9,8.9,19.9,19.9s-8.9,19.9-19.9,19.9c-11,0-19.9-8.9-19.9-19.9S11.5,2.6,22.5,2.6
		 M22.5,0.7C16.7,0.7,11.2,3,7.1,7.1C3,11.2,0.7,16.7,0.7,22.5c0,5.8,2.3,11.3,6.4,15.4c4.1,4.1,9.6,6.4,15.4,6.4
		c5.8,0,11.3-2.3,15.4-6.4c4.1-4.1,6.4-9.6,6.4-15.4S42,11.2,37.9,7.1C33.8,3,28.3,0.7,22.5,0.7L22.5,0.7z"/>
	<g>
		<g>
			<path fill="#003462" d="M13.3,23.7c3,0,5.4-2.4,5.4-5.4L14,8.2h7.1c0.2,0.5,0.6,0.9,1.2,0.9c0.6,0,1.1-0.4,1.2-0.9h7.1l-4.7,10.1
				c0,3,2.4,5.4,5.4,5.4c3,0,5.4-2.4,5.4-5.4h0L31.9,7.8c-0.1-0.2-0.3-0.3-0.6-0.3c0,0,0,0,0,0h-7.8c-0.2-0.5-0.6-0.9-1.2-0.9
				c-0.6,0-1.1,0.4-1.2,0.9h-7.8c0,0,0,0,0,0c-0.2,0-0.4,0.1-0.6,0.3L7.8,18.3h0C7.8,21.3,10.3,23.7,13.3,23.7z M35.6,17.6H27
				l4.3-9.2L35.6,17.6z M13.3,8.3l4.3,9.2H9L13.3,8.3z"/>
			<path fill="#003462" d="M23.2,10.2c0-0.4,0.3-0.6,0.3-0.6V9.5h-2.4v0.2c0,0,0.3,0.2,0.3,0.6v1h1.9V10.2z"/>
			<rect x="21.5" y="11.7" fill="#003462" width="1.5" height="2.4"/>
			<rect x="21.1" y="14.4" fill="#003462" width="2.4" height="0.6"/>
			<rect x="20.9" y="22.7" fill="#003462" width="2.9" height="0.6"/>
			<path fill="#003462" d="M23.7,27.4v-0.8h-2.9v0.8c0,0.8,0.6,1.4,1.4,1.4C23.1,28.8,23.7,28.2,23.7,27.4z"/>
			<rect x="21.1" y="23.6" fill="#003462" width="2.4" height="2.6"/>
			<rect x="21.5" y="15.4" fill="#003462" width="1.5" height="6.8"/>
		</g>
		<path fill="#EA98BE" d="M37.6,22.1c-0.7,0.1-1.1,1.4-2.2,3c-1.1,1.6-2.1,2.6-5,4.3c-0.6,0.4-2.3,1-2.8,0.2
			c-0.4-0.6,0.3-1.6,0.9-2.6c1.4-2.5-0.9-4.4-1.2-2.9c-0.5,2.2-1,2.2-2.6,4.4c-2.9,4-2.7,8.4,2.3,11.3c-0.4-5.2,3.1-6.9,6.3-9
			c2.5-1.7,4.4-5.5,4.9-7.3C38.1,23.1,38.7,21.9,37.6,22.1z"/>
		<path fill="#EA98BE" d="M17.8,24c-0.3-1.5-2.6,0.4-1.2,2.9c0.6,1,1.3,2.1,0.9,2.6c-0.5,0.8-2.2,0.1-2.8-0.2
			c-2.9-1.6-3.8-2.7-5-4.3c-1.1-1.6-1.6-2.8-2.2-3c-1.1-0.2-0.5,1-0.5,1.3c0.5,1.8,2.4,5.6,4.9,7.3c3.2,2.1,6.6,3.8,6.3,9
			c5-2.8,5.2-7.3,2.3-11.3C18.8,26.2,18.2,26.1,17.8,24z"/>
		<path fill="#B25283" d="M13.3,28.3c-0.1-0.5-0.2-0.9-0.3-1.3c-0.2-1.9-0.9-2.4-1.3-2.2c-0.3,0.1-0.1,1.3,0.1,2.5
			C12.3,27.6,12.7,27.9,13.3,28.3z"/>
		<path fill="#B25283" d="M9.9,23.2C9.7,23.4,9.8,24.1,10,25c0.1,0.2,0.3,0.4,0.4,0.6c0.4,0.5,0.8,1,1.3,1.4
			c-0.2-0.6-0.3-1.1-0.4-1.6C11,23.5,10.3,23,9.9,23.2z"/>
		<path fill="#B25283" d="M14.7,29c-0.1-0.3-0.1-0.6-0.1-0.8c-0.2-1.8-0.8-2.2-1.2-2c-0.2,0.1-0.1,1.1,0.1,2.1
			C13.8,28.6,14.2,28.8,14.7,29z"/>
		<path fill="#B25283" d="M33.2,24.7c-0.4-0.2-1.1,0.3-1.3,2.2c0,0.4-0.1,0.9-0.3,1.3c0.6-0.4,1-0.7,1.4-1
			C33.3,26.1,33.5,24.9,33.2,24.7z"/>
		<path fill="#B25283" d="M34.6,25.6c0.2-0.2,0.3-0.4,0.4-0.6c0.2-0.9,0.3-1.6,0.1-1.8c-0.4-0.2-1.1,0.2-1.4,2.2
			c-0.1,0.5-0.2,1.1-0.4,1.6C33.8,26.6,34.1,26.1,34.6,25.6z"/>
		<path fill="#B25283" d="M31.6,26.2c-0.3-0.2-1,0.2-1.2,2c0,0.3-0.1,0.5-0.1,0.8c0.5-0.2,0.9-0.5,1.2-0.7
			C31.7,27.4,31.8,26.3,31.6,26.2z"/>
	</g>
</g>
<g>
</g>
<g>
</g>
<g>
</g>
<g>
</g>
<g>
</g>
<g>
</g>
</svg>
